<svg width="14" height="14" viewBox="0 0 14 14" fill="none" xmlns="http://www.w3.org/2000/svg">
<g clip-path="url(#clip0_1445_859)">
<path d="M6.99972 9.9174C5.39065 9.9174 4.08398 8.60887 4.08398 7.00167C4.08398 5.39447 5.39252 4.08594 6.99972 4.08594C8.60692 4.08594 9.91545 5.39447 9.91545 7.00167C9.91545 8.60887 8.60692 9.9174 6.99972 9.9174ZM6.99972 5.25074C6.03465 5.25074 5.24878 6.0366 5.24878 7.00167C5.24878 7.96674 6.03465 8.75074 6.99972 8.75074C7.96478 8.75074 8.75065 7.96487 8.75065 7.00167C8.75065 6.03847 7.96478 5.25074 6.99972 5.25074Z" fill="black"/>
<path d="M0.825918 5.99537L5.99609 0.825195L5.17114 0.000237443L0.000959809 5.17041L0.825918 5.99537Z" fill="black"/>
<path d="M14.0003 5.17115L8.83008 0.000976562L8.00512 0.825934L13.1753 5.99611L14.0003 5.17115Z" fill="black"/>
<path d="M0.00169893 8.8308L5.17188 14.001L5.99683 13.176L0.826657 8.00584L0.00169893 8.8308Z" fill="black"/>
<path d="M13.1741 8.00463L8.00391 13.1748L8.82886 13.9998L13.999 8.82959L13.1741 8.00463Z" fill="black"/>
</g>
<defs>
<clipPath id="clip0_1445_859">
<rect width="14" height="14" fill="white"/>
</clipPath>
</defs>
</svg>
