<svg width="14" height="15" viewBox="0 0 14 15" fill="none" xmlns="http://www.w3.org/2000/svg">
<g clip-path="url(#clip0_1445_926)">
<path d="M7.5 13.75C4.048 13.75 1.25 10.952 1.25 7.5C1.25 4.048 4.048 1.25 7.5 1.25V0C3.358 0 0 3.358 0 7.5C0 11.642 3.358 15 7.5 15V13.75Z" fill="black"/>
<path d="M7.5 1.25V2.5C10.262 2.5 12.5 4.738 12.5 7.5C12.5 10.262 10.262 12.5 7.5 12.5V13.75C10.952 13.75 13.75 10.952 13.75 7.5C13.75 4.048 10.952 1.25 7.5 1.25Z" fill="black"/>
<path d="M7.5 3.75586V4.99986C8.88 4.99986 10 6.11986 10 7.49986C10 8.87986 8.88 9.99986 7.5 9.99986V11.2439C9.568 11.2439 11.244 9.56786 11.244 7.49986C11.244 5.43186 9.568 3.75586 7.5 3.75586Z" fill="black"/>
</g>
<defs>
<clipPath id="clip0_1445_926">
<rect width="13.75" height="15" fill="white"/>
</clipPath>
</defs>
</svg>
