<svg width="13" height="15" viewBox="0 0 13 15" fill="none" xmlns="http://www.w3.org/2000/svg">
<g clip-path="url(#clip0_1445_975)">
<path d="M1.25 6.25C1.94036 6.25 2.5 5.69036 2.5 5C2.5 4.30964 1.94036 3.75 1.25 3.75C0.559644 3.75 0 4.30964 0 5C0 5.69036 0.559644 6.25 1.25 6.25Z" fill="black"/>
<path d="M6.25 2.5C6.94036 2.5 7.5 1.94036 7.5 1.25C7.5 0.559644 6.94036 0 6.25 0C5.55964 0 5 0.559644 5 1.25C5 1.94036 5.55964 2.5 6.25 2.5Z" fill="black"/>
<path d="M11.25 6.25C11.9404 6.25 12.5 5.69036 12.5 5C12.5 4.30964 11.9404 3.75 11.25 3.75C10.5596 3.75 10 4.30964 10 5C10 5.69036 10.5596 6.25 11.25 6.25Z" fill="black"/>
<path d="M1.25 11.25C1.94036 11.25 2.5 10.6904 2.5 10C2.5 9.30964 1.94036 8.75 1.25 8.75C0.559644 8.75 0 9.30964 0 10C0 10.6904 0.559644 11.25 1.25 11.25Z" fill="black"/>
<path d="M11.25 11.25C11.9404 11.25 12.5 10.6904 12.5 10C12.5 9.30964 11.9404 8.75 11.25 8.75C10.5596 8.75 10 9.30964 10 10C10 10.6904 10.5596 11.25 11.25 11.25Z" fill="black"/>
<path d="M6.25 15C6.94036 15 7.5 14.4404 7.5 13.75C7.5 13.0596 6.94036 12.5 6.25 12.5C5.55964 12.5 5 13.0596 5 13.75C5 14.4404 5.55964 15 6.25 15Z" fill="black"/>
</g>
<defs>
<clipPath id="clip0_1445_975">
<rect width="12.5" height="15" fill="white"/>
</clipPath>
</defs>
</svg>
