<svg width="15" height="15" viewBox="0 0 15 15" fill="none" xmlns="http://www.w3.org/2000/svg">
<g clip-path="url(#clip0_1445_878)">
<path d="M15 11.3922L8.75 7.78418V15.0002L15 11.3922ZM10 9.89818L12.588 11.3922L10 12.8862V9.89618V9.89818Z" fill="black"/>
<path d="M15 3.608L8.75 0V7.216L15 3.608ZM10 2.114L12.588 3.608L10 5.102V2.112V2.114Z" fill="black"/>
<path d="M6.25 11.3922L0 7.78418V15.0002L6.25 11.3922ZM1.25 9.89818L3.838 11.3922L1.25 12.8862V9.89618V9.89818Z" fill="black"/>
<path d="M6.25 3.608L0 0V7.216L6.25 3.608ZM1.25 2.114L3.838 3.608L1.25 5.102V2.112V2.114Z" fill="black"/>
</g>
<defs>
<clipPath id="clip0_1445_878">
<rect width="15" height="15" fill="white"/>
</clipPath>
</defs>
</svg>
