<svg width="15" height="15" viewBox="0 0 15 15" fill="none" xmlns="http://www.w3.org/2000/svg">
<g clip-path="url(#clip0_1445_934)">
<path d="M7.5 0L0 4.33V15H15V4.33L7.5 0ZM13.75 13.75H1.25V5.062L7.5 1.452L13.75 5.06V13.748V13.75Z" fill="black"/>
<path d="M7.62205 11.25C5.89805 11.25 4.49805 9.84795 4.49805 8.12595C4.49805 6.40395 5.90005 5.00195 7.62205 5.00195C9.34405 5.00195 10.746 6.40395 10.746 8.12595C10.746 9.84795 9.34405 11.25 7.62205 11.25ZM7.62205 6.24995C6.58805 6.24995 5.74605 7.09195 5.74605 8.12595C5.74605 9.15995 6.58805 9.99995 7.62205 9.99995C8.65605 9.99995 9.49805 9.15795 9.49805 8.12595C9.49805 7.09395 8.65605 6.24995 7.62205 6.24995Z" fill="black"/>
</g>
<defs>
<clipPath id="clip0_1445_934">
<rect width="15" height="15" fill="white"/>
</clipPath>
</defs>
</svg>
