<svg width="14" height="14" viewBox="0 0 14 14" fill="none" xmlns="http://www.w3.org/2000/svg">
<g clip-path="url(#clip0_1445_866)">
<path d="M2.91729 5.83333C1.30923 5.83333 0 4.5248 0 2.91573C0 1.30667 1.30923 0 2.91729 0C4.52535 0 5.83458 1.30853 5.83458 2.91573C5.83458 4.52293 4.52535 5.83147 2.91729 5.83147V5.83333ZM2.91729 1.16667C1.95171 1.16667 1.16542 1.95253 1.16542 2.9176C1.16542 3.88267 1.95171 4.66667 2.91729 4.66667C3.88287 4.66667 4.66916 3.8808 4.66916 2.9176C4.66916 1.9544 3.88287 1.16667 2.91729 1.16667Z" fill="black"/>
<path d="M11.0814 5.83333C9.47143 5.83333 8.16406 4.5248 8.16406 2.9176C8.16406 1.3104 9.47329 0 11.0814 0C12.6894 0 13.9986 1.30853 13.9986 2.91573C13.9986 4.52293 12.6894 5.83147 11.0814 5.83147V5.83333ZM11.0814 1.16667C10.1158 1.16667 9.32948 1.95253 9.32948 2.9176C9.32948 3.88267 10.1158 4.66667 11.0814 4.66667C12.0469 4.66667 12.8332 3.8808 12.8332 2.9176C12.8332 1.9544 12.0469 1.16667 11.0814 1.16667Z" fill="black"/>
<path d="M2.91729 14.0004C1.30736 14.0004 0 12.6919 0 11.0847C0 9.47748 1.30923 8.16895 2.91729 8.16895C4.52535 8.16895 5.83458 9.47748 5.83458 11.0847C5.83458 12.6919 4.52535 14.0004 2.91729 14.0004ZM2.91729 9.33375C1.95171 9.33375 1.16542 10.1196 1.16542 11.0847C1.16542 12.0497 1.95171 12.8337 2.91729 12.8337C3.88287 12.8337 4.66916 12.0479 4.66916 11.0847C4.66916 10.1215 3.88287 9.33375 2.91729 9.33375Z" fill="black"/>
<path d="M11.0814 14.0004C9.47143 14.0004 8.16406 12.6919 8.16406 11.0847C8.16406 9.47748 9.47329 8.16895 11.0814 8.16895C12.6894 8.16895 13.9986 9.47748 13.9986 11.0847C13.9986 12.6919 12.6894 14.0004 11.0814 14.0004ZM11.0814 9.33375C10.1158 9.33375 9.32948 10.1196 9.32948 11.0847C9.32948 12.0497 10.1158 12.8337 11.0814 12.8337C12.0469 12.8337 12.8332 12.0479 12.8332 11.0847C12.8332 10.1215 12.0469 9.33375 11.0814 9.33375Z" fill="black"/>
</g>
<defs>
<clipPath id="clip0_1445_866">
<rect width="14" height="14" fill="white"/>
</clipPath>
</defs>
</svg>
