<svg width="15" height="15" viewBox="0 0 15 15" fill="none" xmlns="http://www.w3.org/2000/svg">
<g clip-path="url(#clip0_1445_896)">
<path d="M10 0V5H15V0H10ZM13.75 3.75H11.25V1.25H13.75V3.75Z" fill="black"/>
<path d="M0 10V15H5V10H0ZM3.75 13.75H1.25V11.25H3.75V13.75Z" fill="black"/>
<path d="M3.124 6.25C1.402 6.25 0 4.848 0 3.126C0 1.404 1.402 0 3.124 0C4.846 0 6.248 1.402 6.248 3.124C6.248 4.846 4.846 6.248 3.124 6.248V6.25ZM3.124 1.25C2.09 1.25 1.248 2.092 1.248 3.126C1.248 4.16 2.09 5 3.124 5C4.158 5 5 4.158 5 3.126C5 2.094 4.158 1.25 3.124 1.25Z" fill="black"/>
<path d="M11.8662 15C10.1422 15 8.74219 13.598 8.74219 11.876C8.74219 10.154 10.1442 8.75195 11.8662 8.75195C13.5882 8.75195 14.9902 10.154 14.9902 11.876C14.9902 13.598 13.5882 15 11.8662 15ZM11.8662 9.99995C10.8322 9.99995 9.99019 10.842 9.99019 11.876C9.99019 12.91 10.8322 13.75 11.8662 13.75C12.9002 13.75 13.7422 12.908 13.7422 11.876C13.7422 10.844 12.9002 9.99995 11.8662 9.99995Z" fill="black"/>
</g>
<defs>
<clipPath id="clip0_1445_896">
<rect width="15" height="15" fill="white"/>
</clipPath>
</defs>
</svg>
