
<svg width="475" height="226" viewBox="0 0 475 226" fill="none" xmlns="http://www.w3.org/2000/svg">
<path fill-rule="evenodd" clip-rule="evenodd" d="M2.07031 0V50.5177V51.1085H471.339V0H2.07031ZM2.07031 175.187V225.704V226H471.339V175.187H2.07031ZM470.747 101.33C468.086 97.7854 463.946 95.7174 459.511 96.0128C450.935 96.0128 443.543 101.035 434.968 112.852C427.871 122.896 419 135.304 412.199 135.304C410.721 135.304 409.538 134.713 408.651 133.827C406.877 131.168 406.877 125.555 408.651 117.283C411.017 108.125 415.452 101.626 419.296 101.626C421.07 101.33 423.14 102.512 423.732 104.285C422.549 104.285 421.366 104.58 420.183 105.466C418.705 106.648 418.113 108.125 418.113 110.193C418.113 111.67 418.705 113.443 419.592 114.625C420.775 115.806 422.253 116.397 423.732 116.102C427.871 115.806 431.124 112.261 430.828 108.125V107.83C430.828 104.876 429.645 101.921 427.576 99.8533C425.21 97.4899 421.662 96.3082 418.409 96.6037C408.651 96.6037 400.076 104.876 395.936 109.898C392.881 113.523 389.456 117.024 386.696 119.845L386.695 119.846C385.182 121.394 383.868 122.736 382.926 123.783C385.587 115.215 384.7 106.944 381.447 101.921C379.377 98.6716 375.533 96.8991 371.689 96.8991C367.254 96.8991 363.114 98.3762 359.861 101.626L361.044 97.7853H340.641L339.163 102.808H344.781C341.824 110.193 337.388 117.283 331.474 122.896C332.066 120.828 332.362 119.056 332.657 116.988C333.544 111.375 331.77 105.466 327.926 101.035C325.561 98.3762 322.308 96.8991 318.76 96.8991C308.41 96.8991 299.539 103.103 292.443 115.215L290.373 118.17C290.099 118.632 289.824 119.097 289.549 119.564L289.548 119.566C285.081 127.145 280.447 135.009 272.927 135.009C270.857 135.009 269.083 134.123 267.9 132.645C264.647 128.214 264.352 118.761 267.309 108.125C271.153 94.5357 279.136 81.2416 287.416 81.2416C288.894 81.2416 290.077 81.8324 290.964 82.7187C294.217 86.2638 294.217 94.8311 293.921 98.0808V98.6716H299.835L306.045 75.9239H300.426L300.131 76.2193L297.765 79.469C296.287 77.9919 292.443 74.1514 283.572 74.1514C273.222 74.1514 255.481 84.7867 249.567 108.421C246.61 119.647 248.088 129.691 253.115 136.486C256.663 141.213 262.282 144.167 268.196 144.167C278.249 144.167 287.12 136.486 290.668 130.578C291.26 138.259 297.765 144.167 305.453 144.167C316.098 144.167 328.222 136.486 340.937 121.124L331.179 159.529H345.964L350.695 139.44C353.06 142.395 356.609 143.872 360.453 143.576C368.141 143.576 381.151 134.713 392.683 121.419C390.909 127.032 391.796 133.236 395.049 138.259C397.415 141.508 401.554 143.576 405.694 143.576C419.592 143.576 428.758 132.35 432.011 127.623C432.011 131.759 433.194 135.6 435.855 138.554C438.812 141.804 442.952 143.576 447.091 143.281C459.511 142.985 469.86 134.418 473.113 122.601C475.183 113.738 474.591 106.057 470.747 101.33ZM321.125 120.533C319.351 128.214 314.62 137.372 308.41 137.372C307.227 137.372 306.045 136.781 305.158 135.895C303.383 133.532 303.679 127.328 306.34 117.579C309.297 106.944 313.141 101.626 317.281 101.626C318.464 101.626 319.351 102.217 319.942 103.103C322.604 106.057 322.899 112.852 321.125 120.533ZM368.732 120.828C366.367 130.873 362.227 136.486 357.791 136.486C355.426 136.191 353.06 134.713 352.173 132.35C352.468 130.877 354.821 120.885 356.007 115.848L356.013 115.823L356.017 115.806C357.791 108.421 362.227 102.808 366.071 102.808C367.254 102.808 368.141 103.398 368.732 104.285C370.211 106.057 371.098 110.489 368.732 120.828ZM462.763 120.533C460.989 128.214 456.258 137.372 450.048 137.372C448.866 137.372 447.683 136.781 446.796 135.895C445.022 133.532 445.317 127.328 447.979 117.579C450.935 106.944 454.78 101.626 458.919 101.626C460.102 101.626 460.989 102.217 461.581 103.103C464.242 106.057 464.538 112.852 462.763 120.533ZM230.347 112.557C228.868 112.557 227.39 111.966 226.503 111.08C225.616 109.898 225.024 108.421 225.32 106.648C225.32 104.876 225.911 103.398 227.094 102.217C225.911 101.331 224.137 100.74 222.659 100.74H222.067C219.11 100.444 216.449 102.808 216.449 105.762C216.449 109.307 219.11 111.375 222.363 113.443L223.842 114.625H224.137C230.643 119.056 234.191 121.715 232.712 128.805C231.234 135.304 222.954 142.099 212.901 142.099C202.256 142.099 199.003 139.736 196.342 134.418C192.202 138.849 186.584 141.804 180.374 142.099C176.235 142.099 172.391 138.849 171.799 134.714C168.251 139.145 162.928 141.804 157.31 142.099C149.918 142.099 144.004 136.486 143.412 129.396C139.864 135.009 131.88 142.099 123.009 142.099C120.348 142.395 117.687 141.213 115.913 139.44C114.138 137.077 113.251 134.418 113.251 131.759C107.929 137.963 100.536 141.804 92.257 142.395C89.5958 142.69 86.6388 141.508 84.5689 139.736C83.0905 137.963 82.2034 135.6 81.9077 133.236C76.5852 139.44 68.8971 142.985 60.9133 142.69C55.8865 142.69 52.0424 141.213 50.2682 138.554C47.9027 135.895 47.607 132.055 49.0855 127.032C50.8596 121.124 52.6338 115.215 53.2252 113.148H39.0318L38.7361 114.625C37.5533 120.238 35.4835 125.555 32.2308 130.282C27.7954 136.191 19.5159 143.281 9.75795 143.281C6.801 143.281 3.54835 142.985 0.591391 142.395H0V134.714L0.295696 135.6C1.47848 137.077 3.25265 137.963 5.32252 137.963C10.9407 137.963 15.9676 134.123 17.446 128.51C19.8116 120.238 22.4729 109.602 22.4729 109.602C26.9083 94.5357 34.3007 83.9005 44.65 78.2874C52.0424 74.7423 60.3219 72.9697 68.6014 73.2652H88.7087L87.2302 78.8782H77.7679C77.3821 80.3238 76.1152 84.8504 74.5112 90.5812C71.1983 102.418 66.4477 119.391 65.053 124.965C63.8702 129.396 63.5745 132.055 64.7573 133.532C65.3487 134.418 66.5315 134.714 68.3057 134.714C72.4454 134.714 81.612 127.032 86.3431 108.716C86.3431 108.716 87.5259 103.694 87.8216 101.921H78.9507L80.4292 96.3083H81.0206C91.9613 96.3083 95.214 92.7632 102.606 81.8325L102.902 81.5371H108.52L104.972 96.0129H115.321L113.843 101.921H103.493C103.198 104.285 99.9451 117.283 98.7623 122.01C97.8752 125.26 96.9881 129.987 98.4666 131.759C99.058 132.646 99.9451 132.941 100.832 132.941C106.45 132.941 114.73 126.442 119.165 107.534L125.375 82.4233H115.913L117.391 76.5148H142.23C142.23 76.5148 132.176 119.351 130.697 124.078C129.219 129.987 129.81 131.759 130.402 132.646C130.56 132.725 130.697 132.804 130.825 132.877C131.173 133.078 131.447 133.236 131.88 133.236C136.462 133.236 142.027 122.436 145.663 115.379C146.016 114.694 146.351 114.044 146.665 113.443C150.805 105.171 159.084 95.7175 168.842 95.7175C175.347 95.7175 178.009 98.6717 179.192 100.444L179.783 96.0129H194.272C194.272 96.0129 187.175 124.965 186.584 127.328C185.993 129.691 185.993 131.168 187.175 132.35C187.767 132.941 188.654 133.236 189.541 132.941C191.611 132.055 193.385 130.578 194.863 128.805V127.328C194.863 124.374 197.525 121.715 200.777 122.01C202.551 121.715 204.03 122.306 205.213 123.487C206.396 124.669 206.691 125.851 206.691 127.328C206.396 129.691 204.917 131.759 202.847 132.646C203.143 133.827 204.326 137.077 210.24 137.077C213.788 137.372 217.041 135.304 217.632 131.759C218.493 128.317 216.009 126.545 212.073 123.74C211.956 123.657 211.838 123.573 211.718 123.487L210.535 122.601C203.734 117.283 200.777 111.67 202.551 106.353C204.917 99.2626 212.014 95.1266 221.772 95.1266C225.911 95.1266 230.051 96.6037 233.304 99.2625C235.078 101.035 235.965 103.398 235.965 105.762C235.965 111.08 233.008 112.557 230.347 112.557ZM40.5103 107.534H54.9994L62.9832 79.4691C52.9295 79.7645 46.1285 88.3318 40.5103 107.534ZM163.52 133.827C168.251 133.827 171.503 128.805 174.46 117.874C176.235 111.375 176.235 106.057 174.46 103.694C173.869 102.808 172.982 102.217 171.799 102.217C168.251 102.217 164.111 103.694 161.154 114.92C159.084 122.897 158.789 129.691 160.858 132.35C161.45 133.236 162.337 133.827 163.52 133.827Z" fill="white"/>
</svg>
