
<svg width="773" height="144" viewBox="0 0 773 144" fill="none" xmlns="http://www.w3.org/2000/svg">
<g clip-path="url(#clip0_1743_441)">
<path d="M351.877 101.772C350.724 103.98 349.306 106.1 347.533 107.867C344.075 111.224 339.908 113.256 335.209 114.228C328.649 115.553 322.088 115.2 315.793 112.726C308.524 109.899 303.381 104.775 299.835 97.8845C298.239 94.7041 297.175 91.4354 296.643 87.9017C295.757 82.336 295.934 76.8587 297.353 71.3814C299.303 63.9606 303.293 57.9532 309.499 53.536C313.134 50.8857 317.301 49.2955 321.733 48.5004C323.772 48.1471 325.812 47.9704 327.851 47.882C331.308 47.7937 334.766 48.2354 338.046 49.3839C343.898 51.5041 348.685 55.0379 351.965 60.4268C352.054 60.6035 352.231 60.7802 352.409 61.0452C353.207 56.9814 354.005 53.0943 354.802 49.2072C358.703 49.2072 362.604 49.2072 366.594 49.2072C366.594 49.4722 366.682 49.7372 366.682 50.0023C366.682 69.2612 366.682 88.5201 366.682 107.867C366.682 111.931 366.239 115.995 365.264 119.97C363.934 125.271 361.629 130.13 357.817 134.282C353.739 138.699 348.685 141.35 342.922 142.851C339.553 143.735 336.096 144 332.55 144C329.358 144 326.078 143.823 322.886 143.293C319.872 142.763 316.946 142.056 314.02 141.173C310.563 140.113 307.282 138.611 304.179 136.579C303.736 136.314 303.559 136.049 303.559 135.519C303.559 131.72 303.559 128.01 303.559 124.211C303.559 124.123 303.559 124.034 303.647 123.857C303.913 123.946 304.091 124.034 304.357 124.123C306.218 125.183 308.08 126.243 310.031 127.215C311.715 128.01 313.488 128.628 315.261 129.335C317.123 130.13 319.162 130.66 321.113 131.013C324.659 131.632 328.205 131.897 331.752 131.632C334.5 131.367 337.248 131.013 339.908 129.953C344.252 128.275 347.621 125.448 349.66 121.207C350.99 118.38 351.877 115.288 352.054 112.196C352.231 108.751 352.231 105.394 352.231 101.948C352.231 101.772 352.231 101.507 352.231 101.33C352.143 101.33 352.143 101.33 352.054 101.33C352.054 101.33 351.965 101.507 351.877 101.772ZM310.74 81.3642C310.74 82.1593 310.651 82.9544 310.74 83.7495C310.829 84.5446 311.006 85.3397 311.095 86.1348C312.424 92.8489 317.389 98.9446 324.836 101.065C329.89 102.478 334.943 102.478 339.908 100.358C346.114 97.7078 350.015 93.2023 351.788 86.7532C352.675 83.3961 352.675 79.9507 351.965 76.5053C351.256 73.1483 349.749 70.1446 347.444 67.5826C344.252 64.0489 340.174 61.9287 335.475 61.1336C332.904 60.6918 330.244 60.6918 327.673 61.1336C322.975 61.9287 318.985 63.8722 315.793 67.4943C312.158 71.4698 310.563 76.152 310.74 81.3642Z" fill="white"/>
<path d="M195.219 26.5039C195.574 26.5039 195.84 26.5039 196.194 26.5039C207.188 26.5039 218.27 26.5039 229.263 26.5039C231.48 26.5039 233.608 26.5923 235.824 27.1223C237.331 27.4757 238.838 27.6524 240.257 28.0057C243.98 28.9775 247.349 30.5677 250.186 33.218C251.96 34.8965 253.378 36.7518 254.442 39.0487C255.151 40.6389 255.683 42.2291 256.038 43.9076C256.392 46.1162 256.481 48.4131 256.304 50.6217C256.215 52.7419 255.772 54.7738 255.063 56.8057C253.378 61.2229 250.275 64.4033 245.931 66.3468C245.488 66.5235 245.044 66.7002 244.601 66.8769C244.601 66.8769 244.601 66.9653 244.512 66.9653C245.488 67.3186 246.463 67.672 247.438 67.937C250.452 68.7321 252.935 70.499 255.151 72.6192C257.102 74.6511 258.697 76.9481 259.673 79.5984C260.205 80.9235 260.648 82.337 260.914 83.7505C261.712 87.9027 261.623 92.1432 260.471 96.2953C258.609 102.833 254.353 107.603 248.325 110.695C245.222 112.286 241.941 113.257 238.484 113.787C235.558 114.229 232.632 114.494 229.707 114.494C218.625 114.494 207.454 114.494 196.372 114.494C196.017 114.494 195.574 114.494 195.13 114.494C195.13 114.141 195.13 113.876 195.13 113.699C195.13 84.9873 195.13 56.1873 195.13 27.4757C195.13 27.2107 195.13 26.9456 195.13 26.7689C195.042 26.5922 195.13 26.5922 195.219 26.5039ZM209.67 102.038C209.936 102.038 210.113 102.038 210.379 102.038C217.117 102.038 223.855 102.038 230.593 102.038C231.303 102.038 232.1 102.126 232.81 101.949C234.76 101.596 236.711 101.243 238.484 100.447C241.587 99.1223 244.158 97.1788 245.488 93.9984C247.083 90.1113 246.906 86.1358 245.222 82.2487C243.714 78.8033 240.877 76.8597 237.597 75.5346C235.115 74.5628 232.455 74.2978 229.795 74.2978C223.323 74.2978 216.94 74.2978 210.468 74.2978C210.202 74.2978 210.025 74.2978 209.759 74.3861C209.67 83.5738 209.67 92.6732 209.67 102.038ZM209.67 63.1665C209.848 63.1665 209.936 63.2548 210.025 63.2548C216.231 63.2548 222.348 63.2548 228.554 63.2548C231.391 63.2548 233.962 62.5481 236.445 61.1346C238.75 59.8094 240.168 57.9542 240.966 55.4806C241.498 53.8021 241.587 52.1235 241.587 50.3567C241.587 45.4978 238.838 41.6107 234.228 39.9321C232.189 39.2254 230.15 38.872 228.022 38.9603C222.171 38.9603 216.231 38.9603 210.379 38.9603C210.202 38.9603 210.025 38.9603 209.759 39.0487C209.67 47.088 209.67 55.1272 209.67 63.1665Z" fill="white"/>
<path d="M411.454 63.0773C411.809 63.0773 412.163 63.1656 412.518 63.1656C425.728 63.1656 438.849 63.1656 452.059 63.1656C452.414 63.1656 452.857 63.1656 453.3 63.1656C453.3 50.6208 453.3 38.1644 453.3 25.6196C458.176 25.6196 463.052 25.6196 467.929 25.6196C467.929 54.9497 467.929 84.2797 467.929 113.698C463.052 113.698 458.265 113.698 453.389 113.698C453.389 101.242 453.389 88.8736 453.389 76.4171C452.502 76.1521 412.784 76.0638 411.277 76.3288C411.277 88.6969 411.277 101.153 411.277 113.61C406.401 113.61 401.525 113.61 396.648 113.61C396.648 84.2797 396.648 54.9497 396.648 25.5312C401.525 25.5312 406.312 25.5312 411.188 25.5312C411.188 25.8846 411.188 26.238 411.188 26.5914C411.188 38.4294 411.188 50.3558 411.188 62.1938C411.188 62.3705 411.188 62.6355 411.188 62.8122C411.365 62.9006 411.454 62.9889 411.454 63.0773Z" fill="white"/>
<path d="M610.317 101.332C610.14 101.597 610.051 101.774 609.874 102.039C607.569 106.632 604.023 109.901 599.413 112.11C597.107 113.258 594.625 113.965 592.054 114.407C589.04 114.848 586.114 114.937 583.1 114.76C573.17 114.053 566.078 109.106 561.733 103.629C560.226 101.685 558.985 99.6533 557.832 97.4447C556.503 94.706 555.705 91.879 554.995 88.9637C554.286 85.6066 554.198 82.1612 554.286 78.7158C554.375 75.2704 555.084 72.0017 556.148 68.8214C557.566 64.7576 559.694 61.1355 562.62 57.9551C565.014 55.3931 567.673 53.2729 570.688 51.6827C573.525 50.1809 576.539 49.2091 579.642 48.5907C583.011 47.9723 586.38 47.7072 589.749 48.0606C598.26 49.0324 604.909 52.8312 609.697 59.8987C609.874 60.1637 610.14 60.5171 610.406 60.9588C611.115 56.895 611.825 53.0079 612.534 49.2091C616.612 49.2091 620.69 49.2091 624.768 49.2091C624.768 70.6766 624.768 92.1441 624.768 113.612C619.981 113.612 615.194 113.612 610.317 113.612C610.317 109.548 610.317 105.396 610.317 101.332C610.317 101.243 610.229 101.067 610.229 100.978C610.317 101.067 610.317 101.243 610.317 101.332ZM568.826 80.9244C568.737 80.9244 568.737 80.9244 568.649 80.9244C568.737 82.4263 568.915 83.9281 569.003 85.4299C569.181 87.1968 569.713 88.787 570.422 90.3772C572.106 93.9109 574.589 96.7379 577.958 98.9465C580.263 100.448 582.656 101.243 585.227 101.773C587.798 102.215 590.547 102.304 593.118 101.862C597.817 101.067 601.806 99.0348 605.087 95.5894C608.19 92.2324 609.785 88.2569 610.229 83.8398C610.406 82.3379 610.406 80.8361 610.229 79.3342C609.963 77.6557 609.697 76.0655 609.253 74.4753C608.367 71.6484 606.86 69.2631 604.821 67.1428C601.629 63.9625 597.905 61.9306 593.384 61.2238C590.281 60.6938 587.267 60.7821 584.252 61.4888C577.071 63.2557 572.195 67.4962 569.801 74.4753C569.447 75.6238 569.092 76.8606 568.826 78.0091C568.737 78.8925 568.826 79.8643 568.826 80.9244Z" fill="white"/>
<path d="M773.174 113.612C768.298 113.612 763.599 113.612 758.634 113.612C758.634 113.17 758.634 112.817 758.634 112.463C758.634 100.625 758.634 88.6988 758.634 76.8608C758.634 74.4755 758.28 72.1786 757.57 69.8816C756.152 65.5528 753.226 62.7258 748.971 61.224C744.538 59.6338 740.016 59.7221 735.672 61.489C730.796 63.4326 727.959 67.2313 726.54 72.1786C726.097 73.9454 725.831 75.8007 725.831 77.6559C725.831 89.2289 725.831 100.802 725.831 112.287C725.831 112.64 725.831 113.082 725.831 113.612C721.044 113.612 716.256 113.612 711.469 113.612C711.469 82.6031 711.469 51.5945 711.469 20.5859C716.256 20.5859 720.955 20.5859 725.831 20.5859C725.831 33.3074 725.831 46.1172 725.831 59.1037C726.54 58.132 727.072 57.3369 727.604 56.5418C730.796 52.2129 735.14 49.651 740.371 48.5025C743.651 47.7958 747.02 47.6191 750.389 48.0608C752.694 48.4142 754.999 48.9442 757.304 49.7393C764.131 52.1246 768.386 56.8068 770.958 63.2559C771.933 65.5528 772.465 67.9381 772.731 70.4117C772.908 71.7369 772.997 73.1504 772.997 74.4755C772.997 86.3135 772.997 98.2399 772.997 110.078C773.174 111.226 773.174 112.375 773.174 113.612Z" fill="white"/>
<path d="M546.832 86.1348C529.544 86.1348 512.345 86.1348 495.057 86.1348C495.057 86.7532 494.968 87.4599 495.057 87.99C496.121 92.4955 498.337 96.3826 502.238 99.0329C503.657 100.005 505.252 100.976 506.848 101.595C508.355 102.213 509.951 102.39 511.547 102.743C513.941 103.185 516.246 103.097 518.64 102.743C519.969 102.567 521.211 102.125 522.452 101.683C526.973 100.093 530.342 97.266 532.559 93.0256C532.559 92.9372 532.647 92.9372 532.825 92.7605C536.903 93.0256 540.981 93.5556 545.237 94.0857C545.148 94.5274 545.148 94.8808 544.971 95.3225C543.641 98.9446 541.602 102.213 538.853 105.04C533.002 110.959 525.821 114.051 517.576 114.67C512.079 115.111 506.76 114.493 501.617 112.638C493.993 109.899 488.23 105.04 484.418 97.9728C483 95.4108 482.113 92.6722 481.404 89.8452C480.517 85.7814 480.428 81.7176 480.694 77.6538C480.872 74.8268 481.492 72.0881 482.468 69.4378C485.571 60.9568 491.067 54.6844 499.312 50.8857C504.632 48.4121 510.394 47.617 516.246 47.9703C519.26 48.147 522.275 48.6771 525.2 49.6489C534.066 52.5642 540.095 58.4832 543.73 67.0525C546.301 73.0599 547.01 79.4206 546.921 85.9581C546.921 85.8697 546.921 85.9581 546.832 86.1348ZM532.027 75.2685C532.027 75.0035 532.115 74.8268 532.115 74.5618C532.027 73.1483 531.761 71.8231 531.318 70.4979C529.456 65.4624 525.643 62.282 520.679 60.6035C515.803 58.9249 510.838 59.0133 506.05 60.8685C500.642 63.0771 496.919 66.8759 495.411 72.6182C495.234 73.4133 494.968 74.2967 495.057 75.2685C507.38 75.2685 519.703 75.2685 532.027 75.2685Z" fill="white"/>
<path d="M115.256 114.671C115.167 117.587 115.256 120.59 115.078 123.506C114.724 128.276 112.596 132.34 109.138 135.609C105.858 138.701 102.046 140.379 97.6131 140.821C96.4605 140.909 95.308 140.998 94.1554 140.998C78.5518 140.998 62.9482 140.998 47.4332 140.998C44.1529 140.998 40.9613 140.556 38.0356 139.142C31.6523 136.05 27.7514 131.015 26.9535 123.947C26.5988 120.855 26.7762 117.675 26.6875 114.583C26.6875 114.495 26.6875 114.406 26.6875 114.406C27.0421 114.406 27.3081 114.406 27.6627 114.406C55.9443 114.406 84.3145 114.406 112.596 114.406C113.394 114.406 114.192 114.406 114.901 114.495C114.99 114.583 115.078 114.583 115.256 114.671Z" fill="white"/>
<path d="M26.4168 26.2382C26.4168 24.0297 26.4168 21.7327 26.5054 19.5241C26.5054 17.3155 26.8601 15.1069 27.658 12.9867C30.3177 6.18425 35.1938 1.94376 42.375 0.353576C43.6162 0.0885449 44.9461 0.000201306 46.1873 0.000201306C62.6775 0.000201306 79.1677 -0.0881423 95.5692 0.000201306C103.726 0.0885449 109.666 3.97566 113.301 11.2198C114.453 13.6051 114.985 16.1671 115.074 18.729C115.162 20.8493 115.162 23.0579 115.162 25.1781C115.162 25.5315 115.162 25.9732 115.162 26.3266C115.074 26.4149 115.074 26.4149 114.985 26.5033C113.833 26.5033 112.68 26.5033 111.616 26.5033C87.9447 26.5033 64.362 26.5033 40.6906 26.5033C35.9031 26.5033 31.2043 26.5033 26.4168 26.5033L26.3281 26.4149C26.5054 26.4149 26.5054 26.3266 26.4168 26.2382Z" fill="white"/>
<path d="M26.5974 114.405C26.5974 114.494 26.5974 114.582 26.5974 114.582C24.381 114.582 22.1646 114.582 19.8595 114.582C16.4905 114.493 13.2102 113.875 10.2845 112.197C3.45796 108.309 0.0889975 102.479 0.000340592 94.7045C-0.0883164 87.9021 0.000340592 81.0113 0.000340592 74.2088C0.000340592 64.9328 0.000340592 55.6567 0.000340592 46.3806C0.000340592 42.8469 0.709596 39.4015 2.48274 36.3094C5.58573 30.9205 10.1959 27.6518 16.3132 26.5917C17.7317 26.3266 19.1502 26.3266 20.5688 26.3266C22.5192 26.2383 24.4697 26.3266 26.4201 26.2383C26.5088 26.2383 26.5974 26.3266 26.6861 26.3266L26.7747 26.415C26.7747 26.7683 26.7747 27.2101 26.7747 27.5634C26.7747 56.0101 26.7747 84.4567 26.7747 112.903C26.5974 113.522 26.5974 113.963 26.5974 114.405Z" fill="white"/>
<path d="M115.341 26.4141C117.912 26.4141 120.483 26.4141 122.966 26.5024C127.221 26.5907 131.034 28.0042 134.314 30.6546C138.304 33.7466 140.697 37.8104 141.495 42.846C141.761 44.2595 141.85 45.7613 141.85 47.1748C141.85 62.5466 141.85 77.9184 141.85 93.2901C141.85 96.1171 141.761 98.9441 140.697 101.594C138.126 108.574 133.073 112.814 125.803 114.404C123.764 114.846 121.636 114.846 119.597 114.846C118.178 114.846 116.671 114.846 115.253 114.846C115.253 114.758 115.253 114.669 115.253 114.581C115.253 114.228 115.253 113.786 115.253 113.432C115.253 85.0742 115.253 56.6276 115.253 28.2693C115.253 27.7392 115.253 27.2975 115.164 26.7674C115.164 26.5024 115.253 26.4141 115.341 26.4141Z" fill="white"/>
<path d="M673.174 30.5664C678.051 30.5664 682.661 30.5664 687.448 30.5664C687.448 36.7505 687.448 42.9345 687.448 49.1186C692.236 49.1186 696.935 49.1186 701.722 49.1186C701.722 52.9173 701.722 56.6278 701.722 60.4265C697.023 60.4265 692.324 60.4265 687.537 60.4265C687.537 78.1836 687.537 95.8523 687.537 113.609C682.749 113.609 678.051 113.609 673.263 113.609C673.263 95.9406 673.263 78.2719 673.263 60.5149C669.806 60.5149 666.525 60.5149 663.156 60.5149C663.156 56.7161 663.156 53.0057 663.156 49.2069C666.525 49.2069 669.806 49.2069 673.174 49.2069C673.174 42.9345 673.174 36.7505 673.174 30.5664Z" fill="white"/>
<path d="M653.402 113.612C648.614 113.612 643.915 113.612 639.039 113.612C639.039 82.6031 639.039 51.5945 639.039 20.5859C643.827 20.5859 648.525 20.5859 653.402 20.5859C653.402 51.5945 653.402 82.5148 653.402 113.612Z" fill="white"/>
<path d="M271.109 113.609C271.109 92.142 271.109 70.7629 271.109 49.207C275.897 49.207 280.596 49.207 285.472 49.207C285.472 70.6745 285.472 92.0537 285.472 113.609C280.684 113.609 275.986 113.609 271.109 113.609Z" fill="white"/>
<path d="M286.626 32.9514C286.715 37.2802 283.168 41.2556 278.292 41.2556C273.15 41.2556 269.781 36.9268 269.781 32.9514C269.781 27.9158 273.859 24.382 278.381 24.4704C283.168 24.4704 286.981 28.7109 286.626 32.9514Z" fill="white"/>
<path d="M195.224 26.5039C195.136 26.5922 195.136 26.5923 195.047 26.6806C195.047 26.5923 195.136 26.5922 195.224 26.5039Z" fill="white"/>
<path d="M114.812 114.495C114.901 114.495 115.078 114.406 115.167 114.406C115.167 114.495 115.167 114.583 115.167 114.671C115.078 114.583 114.99 114.583 114.812 114.495Z" fill="white"/>
</g>
<defs>
<clipPath id="clip0_1743_441">
<rect width="773" height="144" fill="white"/>
</clipPath>
</defs>
</svg>
