
<svg width="385" height="158" viewBox="0 0 385 158" fill="none" xmlns="http://www.w3.org/2000/svg">
<path fill-rule="evenodd" clip-rule="evenodd" d="M335.76 103.014C316.894 100.227 302.595 83.851 302.595 64.2469C302.321 53.287 306.158 42.6012 313.285 34.1073C320.959 25.6134 331.923 20.9554 343.435 21.2294C367.281 21.2294 383.726 39.0392 383.726 64.5209V102.058H366.184V96.3045C359.87 100.136 352.815 102.485 345.627 103.197V135.212C345.627 139.047 346.45 139.869 348.368 139.869H350.561V141.787H330.827V139.869H333.019C334.938 139.869 335.76 139.047 335.76 135.212V103.014ZM320.137 62.3289C320.137 48.0811 330.004 37.9432 343.709 37.9432C354.672 37.9432 365.91 45.3411 366.184 61.5069C366.184 76.5767 358.51 82.0567 354.124 83.9746C350.561 85.6186 346.998 86.4406 343.435 86.4406C329.182 86.4406 320.137 76.8507 320.137 62.3289ZM213.79 62.8769C213.79 86.9886 230.236 103.428 254.63 103.428C276.831 103.428 294.647 88.6326 294.921 58.219V0.679688H277.379V28.3533C269.979 23.4214 261.208 20.9554 252.163 21.2294C232.976 21.2294 213.79 35.7512 213.79 62.8769ZM231.058 63.1509C231.058 47.8071 240.103 38.2172 254.355 38.2172C267.512 38.2172 276.831 47.5331 276.831 61.5069C276.831 79.0427 265.593 86.9886 254.63 86.9886C240.651 86.9886 231.058 77.3987 231.058 63.1509ZM170.21 102.058H187.752V67.2608C187.752 48.9031 193.782 39.5872 207.212 39.5872H212.694V22.8734H206.116C198.715 22.5994 191.863 25.6134 186.929 30.8193V22.8734H170.21V102.058ZM98.9465 93.8385C105.525 100.14 114.296 103.702 123.34 103.428C132.66 103.702 141.43 100.14 147.734 93.8385C154.313 86.9886 157.876 77.9467 157.602 68.6308V22.8734H140.06V68.6308V68.9048C140.334 78.4947 132.934 86.4406 123.34 86.7146H123.066C113.473 86.1666 106.073 78.2207 106.621 68.6308V22.8734H89.0792V68.6308C88.8051 77.9467 92.3683 86.9886 98.9465 93.8385ZM0 58.219C0 88.6326 17.8158 103.428 40.0171 103.428C64.4111 103.428 80.8565 87.2626 81.1306 63.1509C81.1306 35.7512 61.6702 21.5034 42.758 21.5034C33.7131 21.2294 24.9422 23.6954 17.5418 28.6273V0.679688H0V58.219ZM17.8158 61.5069C17.8158 47.8071 26.8608 38.2172 40.2912 38.2172C54.5439 38.2172 63.5889 47.5331 63.5889 63.1509C63.5889 77.3987 53.9957 86.9886 40.0171 86.9886C29.0535 86.9886 17.8158 79.0427 17.8158 61.5069ZM373.585 123.156C373.585 116.032 373.585 109.456 368.651 109.456C362.895 109.456 362.621 116.58 362.621 123.156H373.585ZM362.895 126.992C362.895 133.568 363.443 140.691 371.118 140.691C376.6 140.417 380.711 135.759 380.437 130.554H383.452C382.63 138.773 377.422 143.157 368.925 143.157C358.236 143.157 352.206 135.486 352.206 125.074C352.206 114.662 358.236 107.264 368.925 107.264C380.437 107.264 384.274 114.936 384.274 125.348H362.895V126.992ZM321.233 108.086H331.923L332.471 110.004C330.141 110.004 329.278 111.96 328.266 114.255C328.206 114.389 328.146 114.525 328.086 114.662L314.655 148.089C312.188 154.117 310.27 157.405 304.24 157.405C300.951 157.405 297.936 154.939 297.662 151.377V150.829C297.936 148.363 299.854 146.719 302.321 146.719H302.869C305.062 146.993 306.707 148.637 306.707 150.829C306.707 151.734 306.374 152.307 306.076 152.822C305.832 153.243 305.61 153.625 305.61 154.117C305.61 154.665 306.159 155.213 306.707 155.213C308.625 155.213 310.544 151.651 311.914 147.815L313.559 143.431L302.595 115.21C302.047 113.566 300.951 110.278 299.032 110.278H290.261V132.472C290.261 136.307 290.261 139.321 293.276 139.321C295.743 139.321 296.291 136.855 296.291 134.39V132.198H298.758V133.568C298.758 140.143 296.017 143.157 289.987 143.157C283.135 143.157 280.394 139.047 280.394 134.39V110.278H275.735V108.086C282.313 107.812 286.698 101.236 288.069 95.208H289.987V108.086H315.752V110.004H314.655C313.285 110.004 311.64 110.004 311.64 111.648C311.64 112.196 311.64 112.744 311.914 113.292L318.493 130.554L324.523 114.662C324.797 113.84 325.071 113.018 325.071 112.196C325.071 110.278 323.974 110.004 322.878 110.004H321.233V108.086ZM262.083 120.23C262.333 120.29 262.589 120.352 262.852 120.416C268.882 121.786 273.268 123.704 273.268 131.65C273.268 139.869 266.69 143.157 259.563 143.157C257.919 143.157 256.274 142.883 254.63 142.609C254.421 142.575 254.216 142.54 254.015 142.506C252.633 142.27 251.406 142.061 249.97 142.061C248.874 142.061 247.777 142.609 246.681 143.157L246.681 143.157H246.133V131.102H248.326C249.696 136.581 252.985 140.691 259.289 140.691C262.578 140.965 265.593 138.499 265.867 135.212C265.867 130.828 262.578 129.732 256 128.362C251.066 127.54 246.133 125.622 246.133 118.772C246.133 110.826 252.163 107.264 259.563 107.264C260.934 107.264 262.304 107.538 263.675 107.812C266.141 108.36 268.334 108.634 270.801 108.36H271.349V117.95H269.156C268.608 113.292 264.771 109.73 260.111 109.456C256.548 109.456 253.259 110.552 253.259 114.662C253.259 118.106 254.797 118.476 262.083 120.23Z" fill="white"/>
</svg>
