
<svg width="497" height="89" viewBox="0 0 497 89" fill="none" xmlns="http://www.w3.org/2000/svg">
<path d="M100.308 24.9027C82.1488 24.9027 68.097 38.545 68.097 56.9513C68.097 75.3577 81.9326 89 100.308 89C118.683 89 132.735 75.1411 132.735 56.9513C132.735 38.7616 118.9 24.9027 100.308 24.9027ZM100.524 75.5742C90.1475 75.5742 82.7973 67.562 82.7973 56.7348C82.7973 45.9075 90.1475 37.8954 100.524 37.8954C110.901 37.8954 118.467 45.9075 118.467 56.7348C118.467 67.562 110.685 75.5742 100.524 75.5742ZM136.626 38.7616H145.49V87.7007H159.974V25.9854H136.626V38.7616ZM31.9948 38.1119C39.5611 38.1119 45.6142 42.6594 47.776 49.5888H62.9087C60.0983 34.8637 47.9922 24.6861 31.9948 24.6861C14.0518 24.9027 0 38.545 0 56.9513C0 75.3577 13.8356 89 32.211 89C47.776 89 60.0983 79.0389 62.9087 64.0973H47.776C45.6142 71.0268 39.5611 75.7908 32.211 75.7908C21.8343 75.7908 14.4841 67.7786 14.4841 56.9513C14.4841 46.1241 21.6181 38.1119 31.9948 38.1119ZM409.231 50.8881L398.638 49.3723C393.665 48.7226 389.99 46.9903 389.99 43.0925C389.99 38.7616 394.746 36.5961 401.016 36.5961C407.933 36.5961 412.473 39.6277 413.338 44.3917H427.174C425.66 32.0487 416.148 24.6861 401.448 24.6861C386.315 24.6861 376.155 32.4818 376.155 43.5255C376.155 53.9197 382.64 60.1995 396.043 61.9319L406.636 63.4477C411.825 64.0973 414.635 66.2628 414.635 69.944C414.635 74.9246 409.663 76.8735 402.745 76.8735C394.314 76.8735 389.558 73.4088 388.693 68.2117H374.642C375.939 80.3382 385.451 88.7835 402.529 88.7835C418.094 88.7835 428.687 81.6375 428.687 69.2944C428.687 58.4672 421.12 52.837 409.231 50.8881ZM152.84 0.649635C147.652 0.649635 143.544 4.54744 143.544 9.74453C143.544 14.9416 147.435 18.8394 152.84 18.8394C158.028 18.8394 162.136 14.9416 162.136 9.74453C162.136 4.54744 158.028 0.649635 152.84 0.649635ZM363.4 47.2068C363.4 33.781 355.185 24.9027 338.107 24.9027C321.893 24.9027 312.814 33.1314 310.868 45.691H325.136C325.785 40.7105 329.676 36.8127 337.891 36.8127C345.241 36.8127 348.7 40.0608 348.7 43.9586C348.7 49.1557 342.214 50.455 334 51.3212C322.974 52.6204 309.355 56.3017 309.355 70.5937C309.355 81.6375 317.57 88.7835 330.757 88.7835C341.134 88.7835 347.403 84.4526 350.645 77.7397C351.078 83.8029 355.618 87.7007 362.103 87.7007H370.534V74.9246H363.4V47.2068ZM349.132 62.5815C349.132 70.8102 341.998 76.8735 333.135 76.8735C327.73 76.8735 323.191 74.708 323.191 69.7275C323.191 63.6642 330.541 61.9319 337.242 61.2822C343.728 60.6326 347.187 59.3333 349.132 56.5182V62.5815ZM273.037 24.9027C265.038 24.9027 258.336 28.1509 253.58 33.781V0H239.312V87.7007H253.364V79.6886C258.12 85.5353 265.038 89 273.037 89C290.331 89 303.302 75.3577 303.302 56.9513C303.302 38.545 290.115 24.9027 273.037 24.9027ZM270.875 75.5742C260.498 75.5742 253.148 67.562 253.148 56.7348C253.148 45.9075 260.714 37.8954 271.091 37.8954C281.468 37.8954 288.818 45.9075 288.818 56.7348C288.818 67.7786 281.251 75.5742 270.875 75.5742ZM204.94 24.9027C195.644 24.9027 189.591 28.8005 185.916 33.9976V25.9854H171.648V87.7007H185.916V54.1363C185.916 44.6083 191.969 38.1119 200.832 38.1119C209.047 38.1119 214.235 43.9586 214.235 52.4039V87.7007H228.503V51.3212C228.503 35.7299 220.505 24.9027 204.94 24.9027ZM497 55.0024C497 37.2457 484.029 24.9027 466.735 24.9027C448.359 24.9027 434.74 38.7616 434.74 56.9513C434.74 76.2238 449.224 89 466.951 89C481.867 89 493.541 80.1217 496.568 67.562H481.651C479.489 72.9757 474.301 76.2238 467.167 76.2238C457.871 76.2238 450.953 70.5937 449.44 60.4161H497V55.0024ZM450.305 50.2384C452.683 41.5766 458.952 37.4623 466.518 37.4623C474.733 37.4623 480.786 42.0097 482.3 50.2384H450.305Z" fill="white"/>
</svg>
