
<svg width="452" height="88" viewBox="0 0 452 88" fill="none" xmlns="http://www.w3.org/2000/svg">
<path fill-rule="evenodd" clip-rule="evenodd" d="M136.983 19.0964V0.390625C115.557 0.390625 94.2149 0.390625 72.8733 0.475651V86.1822H94.2149V55.9128H130.946V37.2921H94.2149V19.0964H136.983ZM431.598 24.9627V28.0236C431.342 27.8536 431.002 27.6835 430.662 27.5985C418.929 20.6263 403.964 22.3269 394.101 31.8498C383.558 42.223 381.262 59.0583 388.574 72.1523C397.162 87.4571 415.783 92.4736 430.832 83.4608C430.871 83.4414 430.914 83.4221 430.962 83.4017C431.001 83.3851 431.042 83.3679 431.087 83.3495L431.087 83.3491C431.228 83.2908 431.398 83.2203 431.598 83.1207V86.1817H452.004V24.9627H431.598ZM408.81 44.6038C414.932 38.6519 425.901 39.3321 431.513 46.0492V64.9251C426.411 71.3871 415.358 72.3224 409.236 66.7957C403.029 61.0989 402.774 50.3856 408.81 44.6038ZM173.292 87.7963C164.619 87.7963 156.627 85.5006 149.995 79.6338C142.257 72.7466 139.196 63.8189 139.706 53.7007C140.132 45.028 143.363 37.6308 149.91 31.7639C155.266 26.9174 161.643 24.4517 168.7 23.6014C176.438 22.7511 183.92 23.6864 190.722 27.5126C201.521 33.4645 206.622 42.8174 206.962 54.9761C207.217 63.4788 204.837 71.1311 198.97 77.5081C192.763 84.3102 184.77 87.3712 175.673 87.8813C174.907 87.7963 174.057 87.7963 173.292 87.7963ZM187.661 55.6563V54.466C187.236 48.9393 184.941 44.4329 179.839 41.9671C174.992 39.5013 169.211 39.9265 164.789 43.0724C159.943 46.4735 158.412 51.49 158.837 57.1018C159.603 67.8151 168.871 72.5766 177.628 70.1108C183.835 68.4953 187.746 62.7985 187.661 55.6563ZM280.254 65.1823H262.143C262.228 65.6075 262.228 65.9476 262.228 66.3727C263.589 76.0657 268.945 82.5277 278.128 85.5887C285.015 87.9694 292.158 88.1395 299.3 87.2892C304.486 86.609 309.418 85.1635 313.754 82.1026C321.662 76.4058 323.617 64.5872 317.836 56.8498C315.455 53.7038 312.224 51.8332 308.653 50.4728C305.368 49.2563 301.953 48.6924 298.532 48.1276C297.171 47.9029 295.809 47.678 294.453 47.4118C292.073 46.9867 289.692 46.4765 287.311 45.7963C285.951 45.4562 284.845 44.3509 284.42 42.9905C283.825 41.0349 284.845 39.2493 287.311 38.399C289.777 37.6338 292.413 37.4637 294.964 37.9739C298.62 38.5691 301.766 39.9295 302.446 44.1808H320.386V42.9905C319.451 34.1477 314.775 28.2809 306.442 25.39C300.15 23.2643 293.433 22.6692 286.886 23.4344C281.444 24.0296 276.428 25.475 271.921 28.706C262.398 35.5932 262.824 49.5375 269.201 55.8294C271.921 58.5503 275.322 60.4209 279.064 61.2711C282.278 62.0088 285.525 62.5832 288.764 63.1563C290.751 63.5079 292.736 63.859 294.708 64.2471C296.154 64.5021 297.599 64.9273 298.96 65.5225C300.405 65.8626 301.341 67.223 301.341 68.6684C301.255 70.1989 300.15 71.4743 298.705 71.7294C297.004 72.2395 295.219 72.6647 293.433 72.7497C290.457 73.0048 287.481 72.4946 284.76 71.2192C282.38 70.0289 280.764 67.8182 280.254 65.1823ZM357.969 42.4793C357.884 42.7344 357.884 42.9045 357.884 43.1596C357.884 44.5785 357.879 45.9974 357.874 47.4177V47.4216V47.4255V47.4295V47.431V47.4324V47.4339C357.858 51.7103 357.842 55.9987 357.969 60.3349C358.054 65.6065 360.945 68.4974 366.217 68.9225C369.958 69.2626 373.444 68.2423 376.845 66.9669L378.376 66.4568L378.586 68.1382L378.836 70.1295L378.837 70.1397C379.448 75.0181 380.06 79.8967 380.671 84.9925C379.864 85.2077 379.074 85.44 378.29 85.6704L378.29 85.6707C376.596 86.1684 374.932 86.6576 373.189 86.9481C367.152 88.0535 361.115 88.3086 355.249 86.608C345.981 83.8872 340.454 77.5952 338.328 68.2423C337.818 65.7766 337.478 63.2258 337.478 60.675C337.421 56.9338 337.44 53.1927 337.459 49.4515L337.459 49.4335C337.469 47.5689 337.478 45.7043 337.478 43.8398V42.4793H325.574V24.8789H337.478V4.04742H357.969V24.7939H378.801V42.3943C371.744 42.4793 364.942 42.4793 357.969 42.4793ZM236.382 24.9635H215.89V86.0974H236.382V51.0666C242.249 45.2848 249.646 43.6693 257.383 43.3292V23.9431C249.731 23.7731 242.249 26.4939 236.382 31.5105V24.9635ZM35.8825 55.9949H0.0863549V37.7142H54.2481V85.9242H35.8825V55.9949ZM54.2468 18.8391V0.558381H0V18.8391H54.2468ZM52.5463 0.728433L1.53047 0.643407H52.5463V0.728433Z" fill="white"/>
</svg>
