
<svg width="452" height="130" viewBox="0 0 452 130" fill="none" xmlns="http://www.w3.org/2000/svg">
<path fill-rule="evenodd" clip-rule="evenodd" d="M0 0.96875H44.2207C21.9973 5.26275 4.52 21.9868 0 43.1554V0.96875ZM107.726 93.0993H67.5733V31.5519H50.6987V106.659H107.726V93.0993ZM143.281 108.166C153.451 108.166 165.429 103.797 169.572 90.3873H153.376C152.17 94.38 147.65 96.4893 143.281 96.4893C130.644 96.4893 129.66 87.2862 129.204 83.0241L129.194 82.9293H170.25V80.2926C170.25 54.83 153.978 49.632 142.151 49.632C115.935 49.632 113.449 71.0266 113.449 77.7313C113.449 100.633 126.406 108.166 143.281 108.166ZM141.925 61.6853C146.972 61.6853 153.15 64.3973 154.054 73.362H129.646C130.55 66.0546 134.467 61.6853 141.925 61.6853ZM209.201 105.756C201.743 126.322 199.785 129.034 185.999 129.034C183.889 129.034 181.177 128.959 178.917 128.808V117.056C179.03 117.068 179.15 117.083 179.28 117.099C179.93 117.177 180.799 117.282 181.931 117.282C187.656 117.282 190.82 116.529 192.251 108.92L170.179 50.9885H187.731L200.538 91.9699H200.764L213.043 50.9885H229.692L209.201 105.756ZM251.913 58.2965H251.687V31.6285H235.942V106.736H251.386V99.7298H251.612C255.454 105.982 262.384 108.167 268.938 108.167C286.642 108.167 294.1 93.5525 294.1 78.2598C294.1 59.0498 282.423 49.6331 269.24 49.6331C259.145 49.6331 254.399 54.7558 251.913 58.2965ZM251.084 80.1431C251.084 71.2538 253.796 62.2891 264.569 62.2891C274.513 62.2891 277.903 70.5005 277.978 79.3145C277.978 85.8685 275.116 96.1138 265.021 96.1138C255.002 96.1138 251.084 88.4298 251.084 80.1431ZM330.938 108.165C314.816 108.165 300.352 98.9741 300.352 78.8601C300.352 58.8214 314.892 49.5554 330.938 49.5554C346.984 49.5554 361.523 58.7461 361.523 78.8601C361.523 98.9741 347.059 108.165 330.938 108.165ZM330.938 61.9854C318.809 61.9854 316.549 71.7788 316.549 78.9354C316.549 86.0168 318.809 95.8855 330.938 95.8855C343.066 95.8855 345.326 86.0168 345.326 78.9354C345.326 71.7788 343.142 61.9854 330.938 61.9854ZM369.135 106.736H384.88V31.6285H369.135V106.736ZM451.999 106.736H436.556V99.7298H436.33C432.488 105.982 425.557 108.167 419.003 108.167C401.225 108.167 393.842 93.5525 393.842 78.2598C393.842 59.0498 405.519 49.6331 418.702 49.6331C428.797 49.6331 433.543 54.7558 436.029 58.2965H436.255V31.6285H451.999V106.736ZM422.996 96.1138C433.015 96.1138 436.933 88.3545 436.933 80.1431C436.933 71.2538 434.221 62.2891 423.448 62.2891C413.429 62.2891 410.039 70.5758 410.039 79.3145C410.039 85.8685 412.826 96.1138 422.996 96.1138ZM0 64.7019V106.889H44.1453C21.9973 102.595 4.52 85.946 0 64.7019ZM110.968 0.96875V43.1554C106.448 21.9868 88.9711 5.26275 66.823 0.96875H110.968Z" fill="white"/>
</svg>
