
<svg width="231" height="269" viewBox="0 0 231 269" fill="none" xmlns="http://www.w3.org/2000/svg">
<path fill-rule="evenodd" clip-rule="evenodd" d="M191.84 124.437H150.805V31.3321H112.07V0H230.998V31.3321H191.84V124.437ZM111.605 124.437H16.0119V0.186784H57.282V93.1044H111.605V124.437ZM58.2196 268.762H60.1446C92.9166 268.762 115.641 256.004 115.641 230.629V228.893C115.641 208.068 102.917 197.749 81.5074 193.387L56.2476 188.321C47.7495 186.586 43.8995 183.255 43.8995 177.627V176.736C43.8995 170.779 49.2989 166.604 58.3605 166.604H60.2855C69.3471 166.604 74.7465 170.826 74.7465 179.925V180.816H114.655V179.925C114.655 153.33 91.9306 141.792 59.3464 141.792H57.4214C26.6214 141.698 3.6622 154.315 3.6622 179.315V181.051C3.6622 202.392 16.5738 213.087 37.7958 217.261L60.755 221.623C70.1922 223.359 74.23 226.689 74.23 232.458V233.349C74.23 239.822 69.0184 243.856 59.5812 243.856H57.6562C45.308 243.903 40.8476 238.649 40.8476 229.222V228.33H0V229.222C0 251.267 15.4 268.762 58.2196 268.762ZM229.824 267.355H131.367V143.105H229.824V173.03H172.402V190.713H229.824V219.043H172.402V237.43H229.824V267.355Z" fill="white"/>
</svg>
