<svg xmlns="http://www.w3.org/2000/svg" xmlns:xlink="http://www.w3.org/1999/xlink" viewBox="0 0 343 343" width="343" height="343" preserveAspectRatio="xMidYMid meet" style="width: 100%; height: 100%; transform: translate3d(0px, 0px, 0px); content-visibility: visible;"><defs><clipPath id="__lottie_element_238"><rect width="343" height="343" x="0" y="0"></rect></clipPath></defs><g clip-path="url(#__lottie_element_238)"><g transform="matrix(1,0,0,1,163.75,163.75)" opacity="1" style="display: block;"><g opacity="1" transform="matrix(1,0,0,1,7.75,7.75)"><path fill="rgb(0,244,201)" fill-opacity="1" d=" M0,-7.5 C4.14300012588501,-7.5 7.5,-4.142000198364258 7.5,0 C7.5,4.142000198364258 4.14300012588501,7.5 0,7.5 C-4.142000198364258,7.5 -7.5,4.142000198364258 -7.5,0 C-7.5,-4.142000198364258 -4.142000198364258,-7.5 0,-7.5z"></path></g></g><g transform="matrix(1,0,0,1,121.75299072265625,122.75099182128906)" opacity="1" style="display: block;"><g opacity="1" transform="matrix(1,0,0,1,10.855999946594238,10.857000350952148)"><path fill="rgb(255,254,255)" fill-opacity="1" d=" M-0.0010000000474974513,-10.607000350952148 C-0.0010000000474974513,-10.607000350952148 10.607000350952148,-0.0010000000474974513 10.607000350952148,-0.0010000000474974513 C10.607000350952148,-0.0010000000474974513 -0.0010000000474974513,10.607000350952148 -0.0010000000474974513,10.607000350952148 C-0.0010000000474974513,10.607000350952148 -10.607000350952148,-0.0010000000474974513 -10.607000350952148,-0.0010000000474974513 C-10.607000350952148,-0.0010000000474974513 -0.0010000000474974513,-10.607000350952148 -0.0010000000474974513,-10.607000350952148z"></path></g></g><g transform="matrix(1,0,0,1,87.75,125.75)" opacity="1" style="display: block;"><g opacity="1" transform="matrix(1,0,0,1,7.75,7.75)"><path fill="rgb(0,244,201)" fill-opacity="1" d=" M0,-7.5 C4.142000198364258,-7.5 7.5,-4.142000198364258 7.5,0 C7.5,4.142000198364258 4.142000198364258,7.5 0,7.5 C-4.142000198364258,7.5 -7.5,4.142000198364258 -7.5,0 C-7.5,-4.142000198364258 -4.142000198364258,-7.5 0,-7.5z"></path></g></g><g transform="matrix(1,0,0,1,125.75,87.75)" opacity="1" style="display: block;"><g opacity="1" transform="matrix(1,0,0,1,7.75,7.75)"><path fill="rgb(0,244,201)" fill-opacity="1" d=" M0,-7.5 C4.142000198364258,-7.5 7.5,-4.142000198364258 7.5,0 C7.5,4.142000198364258 4.142000198364258,7.5 0,7.5 C-4.142000198364258,7.5 -7.5,4.142000198364258 -7.5,0 C-7.5,-4.142000198364258 -4.142000198364258,-7.5 0,-7.5z"></path></g></g><g transform="matrix(1,0,0,1,86.75,87.75)" opacity="1" style="display: block;"><g opacity="1" transform="matrix(1,0,0,1,7.75,7.75)"><path fill="rgb(255,254,255)" fill-opacity="1" d=" M0,7.5 C4.142000198364258,7.5 7.5,4.142000198364258 7.5,0 C7.5,-4.142000198364258 4.142000198364258,-7.5 0,-7.5 C-4.142000198364258,-7.5 -7.5,-4.142000198364258 -7.5,0 C-7.5,4.142000198364258 -4.142000198364258,7.5 0,7.5z"></path></g></g><g transform="matrix(1,0,0,1,47.75,85.75)" opacity="1" style="display: block;"><g opacity="1" transform="matrix(1,0,0,1,5.25,5.25)"><path fill="rgb(255,254,255)" fill-opacity="1" d=" M0,-5 C2.760999917984009,-5 5,-2.76200008392334 5,0 C5,2.760999917984009 2.760999917984009,5 0,5 C-2.760999917984009,5 -5,2.760999917984009 -5,0 C-5,-2.76200008392334 -2.760999917984009,-5 0,-5z"></path></g><g opacity="1" transform="matrix(1,0,0,1,5.25,15.25)"><path fill="rgb(255,254,255)" fill-opacity="1" d=" M0,-5 C2.760999917984009,-5 5,-2.76200008392334 5,0 C5,2.760999917984009 2.760999917984009,5 0,5 C-2.760999917984009,5 -5,2.760999917984009 -5,0 C-5,-2.76200008392334 -2.760999917984009,-5 0,-5z"></path></g><g opacity="1" transform="matrix(1,0,0,1,15.25,5.25)"><path fill="rgb(255,254,255)" fill-opacity="1" d=" M0,-5 C2.760999917984009,-5 5,-2.76200008392334 5,0 C5,2.760999917984009 2.760999917984009,5 0,5 C-2.760999917984009,5 -5,2.760999917984009 -5,0 C-5,-2.76200008392334 -2.760999917984009,-5 0,-5z"></path></g><g opacity="1" transform="matrix(1,0,0,1,15.25,15.25)"><path fill="rgb(255,254,255)" fill-opacity="1" d=" M0,-5 C2.760999917984009,-5 5,-2.76200008392334 5,0 C5,2.760999917984009 2.760999917984009,5 0,5 C-2.760999917984009,5 -5,2.760999917984009 -5,0 C-5,-2.76200008392334 -2.760999917984009,-5 0,-5z"></path></g></g><g transform="matrix(1,0,0,1,84.75,47.75)" opacity="1" style="display: block;"><g opacity="1" transform="matrix(1,0,0,1,5.25,5.25)"><path fill="rgb(255,254,255)" fill-opacity="1" d=" M0,-5 C2.760999917984009,-5 5,-2.76200008392334 5,0 C5,2.760999917984009 2.760999917984009,5 0,5 C-2.760999917984009,5 -5,2.760999917984009 -5,0 C-5,-2.76200008392334 -2.760999917984009,-5 0,-5z"></path></g><g opacity="1" transform="matrix(1,0,0,1,5.25,15.25)"><path fill="rgb(255,254,255)" fill-opacity="1" d=" M0,-5 C2.760999917984009,-5 5,-2.76200008392334 5,0 C5,2.760999917984009 2.760999917984009,5 0,5 C-2.760999917984009,5 -5,2.760999917984009 -5,0 C-5,-2.76200008392334 -2.760999917984009,-5 0,-5z"></path></g><g opacity="1" transform="matrix(1,0,0,1,15.25,5.25)"><path fill="rgb(255,254,255)" fill-opacity="1" d=" M0,-5 C2.760999917984009,-5 5,-2.76200008392334 5,0 C5,2.760999917984009 2.760999917984009,5 0,5 C-2.760999917984009,5 -5,2.760999917984009 -5,0 C-5,-2.76200008392334 -2.760999917984009,-5 0,-5z"></path></g><g opacity="1" transform="matrix(1,0,0,1,15.25,15.25)"><path fill="rgb(255,254,255)" fill-opacity="1" d=" M0,-5 C2.760999917984009,-5 5,-2.76200008392334 5,0 C5,2.760999917984009 2.760999917984009,5 0,5 C-2.760999917984009,5 -5,2.760999917984009 -5,0 C-5,-2.76200008392334 -2.760999917984009,-5 0,-5z"></path></g></g><g transform="matrix(1,0,0,1,49.75,49.75)" opacity="1" style="display: block;"><g opacity="1" transform="matrix(1,0,0,1,7.75,7.75)"><path fill="rgb(0,244,201)" fill-opacity="1" d=" M0,-7.5 C4.142000198364258,-7.5 7.5,-4.142000198364258 7.5,0 C7.5,4.142000198364258 4.142000198364258,7.5 0,7.5 C-4.142000198364258,7.5 -7.5,4.142000198364258 -7.5,0 C-7.5,-4.142000198364258 -4.142000198364258,-7.5 0,-7.5z"></path></g></g><g transform="matrix(1,0,0,1,11.75,49.75)" opacity="1" style="display: block;"><g opacity="1" transform="matrix(1,0,0,1,7.75,7.75)"><path fill="rgb(255,254,255)" fill-opacity="1" d=" M0,-7.5 C4.142000198364258,-7.5 7.5,-4.142000198364258 7.5,0 C7.5,4.142000198364258 4.142000198364258,7.5 0,7.5 C-4.142000198364258,7.5 -7.5,4.142000198364258 -7.5,0 C-7.5,-4.142000198364258 -4.142000198364258,-7.5 0,-7.5z"></path></g></g><g transform="matrix(1,0,0,1,49.75,11.75)" opacity="1" style="display: block;"><g opacity="1" transform="matrix(1,0,0,1,7.75,7.75)"><path fill="rgb(255,254,255)" fill-opacity="1" d=" M0,-7.5 C4.142000198364258,-7.5 7.5,-4.142000198364258 7.5,0 C7.5,4.142000198364258 4.142000198364258,7.5 0,7.5 C-4.142000198364258,7.5 -7.5,4.142000198364258 -7.5,0 C-7.5,-4.142000198364258 -4.142000198364258,-7.5 0,-7.5z"></path></g></g><g transform="matrix(1,0,0,1,8.752999305725098,8.75100040435791)" opacity="1" style="display: block;"><g opacity="1" transform="matrix(1,0,0,1,10.855999946594238,10.855999946594238)"><path fill="rgb(0,244,201)" fill-opacity="1" d=" M0,-10.607000350952148 C0,-10.607000350952148 10.605999946594238,0 10.605999946594238,0 C10.605999946594238,0 0,10.607000350952148 0,10.607000350952148 C0,10.607000350952148 -10.605999946594238,0 -10.605999946594238,0 C-10.605999946594238,0 0,-10.607000350952148 0,-10.607000350952148z"></path></g></g><g transform="matrix(0,1,-1,0,220.24900817871094,121.75299072265625)" opacity="1" style="display: block;"><g opacity="1" transform="matrix(1,0,0,1,10.855999946594238,10.857000350952148)"><path fill="rgb(255,254,255)" fill-opacity="1" d=" M-0.0010000000474974513,-10.607000350952148 C-0.0010000000474974513,-10.607000350952148 10.607000350952148,-0.0010000000474974513 10.607000350952148,-0.0010000000474974513 C10.607000350952148,-0.0010000000474974513 -0.0010000000474974513,10.607000350952148 -0.0010000000474974513,10.607000350952148 C-0.0010000000474974513,10.607000350952148 -10.607000350952148,-0.0010000000474974513 -10.607000350952148,-0.0010000000474974513 C-10.607000350952148,-0.0010000000474974513 -0.0010000000474974513,-10.607000350952148 -0.0010000000474974513,-10.607000350952148z"></path></g></g><g transform="matrix(0,1,-1,0,217.25,87.75)" opacity="1" style="display: block;"><g opacity="1" transform="matrix(1,0,0,1,7.75,7.75)"><path fill="rgb(0,244,201)" fill-opacity="1" d=" M0,-7.5 C4.142000198364258,-7.5 7.5,-4.142000198364258 7.5,0 C7.5,4.142000198364258 4.142000198364258,7.5 0,7.5 C-4.142000198364258,7.5 -7.5,4.142000198364258 -7.5,0 C-7.5,-4.142000198364258 -4.142000198364258,-7.5 0,-7.5z"></path></g></g><g transform="matrix(0,1,-1,0,255.25,125.75)" opacity="1" style="display: block;"><g opacity="1" transform="matrix(1,0,0,1,7.75,7.75)"><path fill="rgb(0,244,201)" fill-opacity="1" d=" M0,-7.5 C4.142000198364258,-7.5 7.5,-4.142000198364258 7.5,0 C7.5,4.142000198364258 4.142000198364258,7.5 0,7.5 C-4.142000198364258,7.5 -7.5,4.142000198364258 -7.5,0 C-7.5,-4.142000198364258 -4.142000198364258,-7.5 0,-7.5z"></path></g></g><g transform="matrix(0,1,-1,0,255.25,86.75)" opacity="1" style="display: block;"><g opacity="1" transform="matrix(1,0,0,1,7.75,7.75)"><path fill="rgb(255,254,255)" fill-opacity="1" d=" M0,7.5 C4.142000198364258,7.5 7.5,4.142000198364258 7.5,0 C7.5,-4.142000198364258 4.142000198364258,-7.5 0,-7.5 C-4.142000198364258,-7.5 -7.5,-4.142000198364258 -7.5,0 C-7.5,4.142000198364258 -4.142000198364258,7.5 0,7.5z"></path></g></g><g transform="matrix(0,1,-1,0,257.25,47.75)" opacity="1" style="display: block;"><g opacity="1" transform="matrix(1,0,0,1,5.25,5.25)"><path fill="rgb(255,254,255)" fill-opacity="1" d=" M0,-5 C2.760999917984009,-5 5,-2.76200008392334 5,0 C5,2.760999917984009 2.760999917984009,5 0,5 C-2.760999917984009,5 -5,2.760999917984009 -5,0 C-5,-2.76200008392334 -2.760999917984009,-5 0,-5z"></path></g><g opacity="1" transform="matrix(1,0,0,1,5.25,15.25)"><path fill="rgb(255,254,255)" fill-opacity="1" d=" M0,-5 C2.760999917984009,-5 5,-2.76200008392334 5,0 C5,2.760999917984009 2.760999917984009,5 0,5 C-2.760999917984009,5 -5,2.760999917984009 -5,0 C-5,-2.76200008392334 -2.760999917984009,-5 0,-5z"></path></g><g opacity="1" transform="matrix(1,0,0,1,15.25,5.25)"><path fill="rgb(255,254,255)" fill-opacity="1" d=" M0,-5 C2.760999917984009,-5 5,-2.76200008392334 5,0 C5,2.760999917984009 2.760999917984009,5 0,5 C-2.760999917984009,5 -5,2.760999917984009 -5,0 C-5,-2.76200008392334 -2.760999917984009,-5 0,-5z"></path></g><g opacity="1" transform="matrix(1,0,0,1,15.25,15.25)"><path fill="rgb(255,254,255)" fill-opacity="1" d=" M0,-5 C2.760999917984009,-5 5,-2.76200008392334 5,0 C5,2.760999917984009 2.760999917984009,5 0,5 C-2.760999917984009,5 -5,2.760999917984009 -5,0 C-5,-2.76200008392334 -2.760999917984009,-5 0,-5z"></path></g></g><g transform="matrix(0,1,-1,0,295.25,84.75)" opacity="1" style="display: block;"><g opacity="1" transform="matrix(1,0,0,1,5.25,5.25)"><path fill="rgb(255,254,255)" fill-opacity="1" d=" M0,-5 C2.760999917984009,-5 5,-2.76200008392334 5,0 C5,2.760999917984009 2.760999917984009,5 0,5 C-2.760999917984009,5 -5,2.760999917984009 -5,0 C-5,-2.76200008392334 -2.760999917984009,-5 0,-5z"></path></g><g opacity="1" transform="matrix(1,0,0,1,5.25,15.25)"><path fill="rgb(255,254,255)" fill-opacity="1" d=" M0,-5 C2.760999917984009,-5 5,-2.76200008392334 5,0 C5,2.760999917984009 2.760999917984009,5 0,5 C-2.760999917984009,5 -5,2.760999917984009 -5,0 C-5,-2.76200008392334 -2.760999917984009,-5 0,-5z"></path></g><g opacity="1" transform="matrix(1,0,0,1,15.25,5.25)"><path fill="rgb(255,254,255)" fill-opacity="1" d=" M0,-5 C2.760999917984009,-5 5,-2.76200008392334 5,0 C5,2.760999917984009 2.760999917984009,5 0,5 C-2.760999917984009,5 -5,2.760999917984009 -5,0 C-5,-2.76200008392334 -2.760999917984009,-5 0,-5z"></path></g><g opacity="1" transform="matrix(1,0,0,1,15.25,15.25)"><path fill="rgb(255,254,255)" fill-opacity="1" d=" M0,-5 C2.760999917984009,-5 5,-2.76200008392334 5,0 C5,2.760999917984009 2.760999917984009,5 0,5 C-2.760999917984009,5 -5,2.760999917984009 -5,0 C-5,-2.76200008392334 -2.760999917984009,-5 0,-5z"></path></g></g><g transform="matrix(0,1,-1,0,293.25,49.75)" opacity="1" style="display: block;"><g opacity="1" transform="matrix(1,0,0,1,7.75,7.75)"><path fill="rgb(0,244,201)" fill-opacity="1" d=" M0,-7.5 C4.142000198364258,-7.5 7.5,-4.142000198364258 7.5,0 C7.5,4.142000198364258 4.142000198364258,7.5 0,7.5 C-4.142000198364258,7.5 -7.5,4.142000198364258 -7.5,0 C-7.5,-4.142000198364258 -4.142000198364258,-7.5 0,-7.5z"></path></g></g><g transform="matrix(0,1,-1,0,293.25,11.75)" opacity="1" style="display: block;"><g opacity="1" transform="matrix(1,0,0,1,7.75,7.75)"><path fill="rgb(255,254,255)" fill-opacity="1" d=" M0,-7.5 C4.142000198364258,-7.5 7.5,-4.142000198364258 7.5,0 C7.5,4.142000198364258 4.142000198364258,7.5 0,7.5 C-4.142000198364258,7.5 -7.5,4.142000198364258 -7.5,0 C-7.5,-4.142000198364258 -4.142000198364258,-7.5 0,-7.5z"></path></g></g><g transform="matrix(0,1,-1,0,331.25,49.75)" opacity="1" style="display: block;"><g opacity="1" transform="matrix(1,0,0,1,7.75,7.75)"><path fill="rgb(255,254,255)" fill-opacity="1" d=" M0,-7.5 C4.142000198364258,-7.5 7.5,-4.142000198364258 7.5,0 C7.5,4.142000198364258 4.142000198364258,7.5 0,7.5 C-4.142000198364258,7.5 -7.5,4.142000198364258 -7.5,0 C-7.5,-4.142000198364258 -4.142000198364258,-7.5 0,-7.5z"></path></g></g><g transform="matrix(0,1,-1,0,334.2489929199219,8.752999305725098)" opacity="1" style="display: block;"><g opacity="1" transform="matrix(1,0,0,1,10.855999946594238,10.855999946594238)"><path fill="rgb(0,244,201)" fill-opacity="1" d=" M0,-10.607000350952148 C0,-10.607000350952148 10.605999946594238,0 10.605999946594238,0 C10.605999946594238,0 0,10.607000350952148 0,10.607000350952148 C0,10.607000350952148 -10.605999946594238,0 -10.605999946594238,0 C-10.605999946594238,0 0,-10.607000350952148 0,-10.607000350952148z"></path></g></g><g transform="matrix(-1,0,0,-1,221.24700927734375,220.24900817871094)" opacity="1" style="display: block;"><g opacity="1" transform="matrix(1,0,0,1,10.855999946594238,10.857000350952148)"><path fill="rgb(255,254,255)" fill-opacity="1" d=" M-0.0010000000474974513,-10.607000350952148 C-0.0010000000474974513,-10.607000350952148 10.607000350952148,-0.0010000000474974513 10.607000350952148,-0.0010000000474974513 C10.607000350952148,-0.0010000000474974513 -0.0010000000474974513,10.607000350952148 -0.0010000000474974513,10.607000350952148 C-0.0010000000474974513,10.607000350952148 -10.607000350952148,-0.0010000000474974513 -10.607000350952148,-0.0010000000474974513 C-10.607000350952148,-0.0010000000474974513 -0.0010000000474974513,-10.607000350952148 -0.0010000000474974513,-10.607000350952148z"></path></g></g><g transform="matrix(-1,0,0,-1,255.25,217.25)" opacity="1" style="display: block;"><g opacity="1" transform="matrix(1,0,0,1,7.75,7.75)"><path fill="rgb(0,244,201)" fill-opacity="1" d=" M0,-7.5 C4.142000198364258,-7.5 7.5,-4.142000198364258 7.5,0 C7.5,4.142000198364258 4.142000198364258,7.5 0,7.5 C-4.142000198364258,7.5 -7.5,4.142000198364258 -7.5,0 C-7.5,-4.142000198364258 -4.142000198364258,-7.5 0,-7.5z"></path></g></g><g transform="matrix(-1,0,0,-1,217.25,255.25)" opacity="1" style="display: block;"><g opacity="1" transform="matrix(1,0,0,1,7.75,7.75)"><path fill="rgb(0,244,201)" fill-opacity="1" d=" M0,-7.5 C4.142000198364258,-7.5 7.5,-4.142000198364258 7.5,0 C7.5,4.142000198364258 4.142000198364258,7.5 0,7.5 C-4.142000198364258,7.5 -7.5,4.142000198364258 -7.5,0 C-7.5,-4.142000198364258 -4.142000198364258,-7.5 0,-7.5z"></path></g></g><g transform="matrix(-1,0,0,-1,256.25,255.25)" opacity="1" style="display: block;"><g opacity="1" transform="matrix(1,0,0,1,7.75,7.75)"><path fill="rgb(255,254,255)" fill-opacity="1" d=" M0,7.5 C4.142000198364258,7.5 7.5,4.142000198364258 7.5,0 C7.5,-4.142000198364258 4.142000198364258,-7.5 0,-7.5 C-4.142000198364258,-7.5 -7.5,-4.142000198364258 -7.5,0 C-7.5,4.142000198364258 -4.142000198364258,7.5 0,7.5z"></path></g></g><g transform="matrix(-1,0,0,-1,295.25,257.25)" opacity="1" style="display: block;"><g opacity="1" transform="matrix(1,0,0,1,5.25,5.25)"><path fill="rgb(255,254,255)" fill-opacity="1" d=" M0,-5 C2.760999917984009,-5 5,-2.76200008392334 5,0 C5,2.760999917984009 2.760999917984009,5 0,5 C-2.760999917984009,5 -5,2.760999917984009 -5,0 C-5,-2.76200008392334 -2.760999917984009,-5 0,-5z"></path></g><g opacity="1" transform="matrix(1,0,0,1,5.25,15.25)"><path fill="rgb(255,254,255)" fill-opacity="1" d=" M0,-5 C2.760999917984009,-5 5,-2.76200008392334 5,0 C5,2.760999917984009 2.760999917984009,5 0,5 C-2.760999917984009,5 -5,2.760999917984009 -5,0 C-5,-2.76200008392334 -2.760999917984009,-5 0,-5z"></path></g><g opacity="1" transform="matrix(1,0,0,1,15.25,5.25)"><path fill="rgb(255,254,255)" fill-opacity="1" d=" M0,-5 C2.760999917984009,-5 5,-2.76200008392334 5,0 C5,2.760999917984009 2.760999917984009,5 0,5 C-2.760999917984009,5 -5,2.760999917984009 -5,0 C-5,-2.76200008392334 -2.760999917984009,-5 0,-5z"></path></g><g opacity="1" transform="matrix(1,0,0,1,15.25,15.25)"><path fill="rgb(255,254,255)" fill-opacity="1" d=" M0,-5 C2.760999917984009,-5 5,-2.76200008392334 5,0 C5,2.760999917984009 2.760999917984009,5 0,5 C-2.760999917984009,5 -5,2.760999917984009 -5,0 C-5,-2.76200008392334 -2.760999917984009,-5 0,-5z"></path></g></g><g transform="matrix(-1,0,0,-1,258.25,295.25)" opacity="1" style="display: block;"><g opacity="1" transform="matrix(1,0,0,1,5.25,5.25)"><path fill="rgb(255,254,255)" fill-opacity="1" d=" M0,-5 C2.760999917984009,-5 5,-2.76200008392334 5,0 C5,2.760999917984009 2.760999917984009,5 0,5 C-2.760999917984009,5 -5,2.760999917984009 -5,0 C-5,-2.76200008392334 -2.760999917984009,-5 0,-5z"></path></g><g opacity="1" transform="matrix(1,0,0,1,5.25,15.25)"><path fill="rgb(255,254,255)" fill-opacity="1" d=" M0,-5 C2.760999917984009,-5 5,-2.76200008392334 5,0 C5,2.760999917984009 2.760999917984009,5 0,5 C-2.760999917984009,5 -5,2.760999917984009 -5,0 C-5,-2.76200008392334 -2.760999917984009,-5 0,-5z"></path></g><g opacity="1" transform="matrix(1,0,0,1,15.25,5.25)"><path fill="rgb(255,254,255)" fill-opacity="1" d=" M0,-5 C2.760999917984009,-5 5,-2.76200008392334 5,0 C5,2.760999917984009 2.760999917984009,5 0,5 C-2.760999917984009,5 -5,2.760999917984009 -5,0 C-5,-2.76200008392334 -2.760999917984009,-5 0,-5z"></path></g><g opacity="1" transform="matrix(1,0,0,1,15.25,15.25)"><path fill="rgb(255,254,255)" fill-opacity="1" d=" M0,-5 C2.760999917984009,-5 5,-2.76200008392334 5,0 C5,2.760999917984009 2.760999917984009,5 0,5 C-2.760999917984009,5 -5,2.760999917984009 -5,0 C-5,-2.76200008392334 -2.760999917984009,-5 0,-5z"></path></g></g><g transform="matrix(-1,0,0,-1,293.25,293.25)" opacity="1" style="display: block;"><g opacity="1" transform="matrix(1,0,0,1,7.75,7.75)"><path fill="rgb(0,244,201)" fill-opacity="1" d=" M0,-7.5 C4.142000198364258,-7.5 7.5,-4.142000198364258 7.5,0 C7.5,4.142000198364258 4.142000198364258,7.5 0,7.5 C-4.142000198364258,7.5 -7.5,4.142000198364258 -7.5,0 C-7.5,-4.142000198364258 -4.142000198364258,-7.5 0,-7.5z"></path></g></g><g transform="matrix(-1,0,0,-1,331.25,293.25)" opacity="1" style="display: block;"><g opacity="1" transform="matrix(1,0,0,1,7.75,7.75)"><path fill="rgb(255,254,255)" fill-opacity="1" d=" M0,-7.5 C4.142000198364258,-7.5 7.5,-4.142000198364258 7.5,0 C7.5,4.142000198364258 4.142000198364258,7.5 0,7.5 C-4.142000198364258,7.5 -7.5,4.142000198364258 -7.5,0 C-7.5,-4.142000198364258 -4.142000198364258,-7.5 0,-7.5z"></path></g></g><g transform="matrix(-1,0,0,-1,293.25,331.25)" opacity="1" style="display: block;"><g opacity="1" transform="matrix(1,0,0,1,7.75,7.75)"><path fill="rgb(255,254,255)" fill-opacity="1" d=" M0,-7.5 C4.142000198364258,-7.5 7.5,-4.142000198364258 7.5,0 C7.5,4.142000198364258 4.142000198364258,7.5 0,7.5 C-4.142000198364258,7.5 -7.5,4.142000198364258 -7.5,0 C-7.5,-4.142000198364258 -4.142000198364258,-7.5 0,-7.5z"></path></g></g><g transform="matrix(-1,0,0,-1,334.2469787597656,334.2489929199219)" opacity="1" style="display: block;"><g opacity="1" transform="matrix(1,0,0,1,10.855999946594238,10.855999946594238)"><path fill="rgb(0,244,201)" fill-opacity="1" d=" M0,-10.607000350952148 C0,-10.607000350952148 10.605999946594238,0 10.605999946594238,0 C10.605999946594238,0 0,10.607000350952148 0,10.607000350952148 C0,10.607000350952148 -10.605999946594238,0 -10.605999946594238,0 C-10.605999946594238,0 0,-10.607000350952148 0,-10.607000350952148z"></path></g></g><g transform="matrix(0,-1,1,0,122.75099182128906,221.24700927734375)" opacity="1" style="display: block;"><g opacity="1" transform="matrix(1,0,0,1,10.855999946594238,10.857000350952148)"><path fill="rgb(255,254,255)" fill-opacity="1" d=" M-0.0010000000474974513,-10.607000350952148 C-0.0010000000474974513,-10.607000350952148 10.607000350952148,-0.0010000000474974513 10.607000350952148,-0.0010000000474974513 C10.607000350952148,-0.0010000000474974513 -0.0010000000474974513,10.607000350952148 -0.0010000000474974513,10.607000350952148 C-0.0010000000474974513,10.607000350952148 -10.607000350952148,-0.0010000000474974513 -10.607000350952148,-0.0010000000474974513 C-10.607000350952148,-0.0010000000474974513 -0.0010000000474974513,-10.607000350952148 -0.0010000000474974513,-10.607000350952148z"></path></g></g><g transform="matrix(0,-1,1,0,125.75,255.25)" opacity="1" style="display: block;"><g opacity="1" transform="matrix(1,0,0,1,7.75,7.75)"><path fill="rgb(0,244,201)" fill-opacity="1" d=" M0,-7.5 C4.142000198364258,-7.5 7.5,-4.142000198364258 7.5,0 C7.5,4.142000198364258 4.142000198364258,7.5 0,7.5 C-4.142000198364258,7.5 -7.5,4.142000198364258 -7.5,0 C-7.5,-4.142000198364258 -4.142000198364258,-7.5 0,-7.5z"></path></g></g><g transform="matrix(0,-1,1,0,87.75,217.25)" opacity="1" style="display: block;"><g opacity="1" transform="matrix(1,0,0,1,7.75,7.75)"><path fill="rgb(0,244,201)" fill-opacity="1" d=" M0,-7.5 C4.142000198364258,-7.5 7.5,-4.142000198364258 7.5,0 C7.5,4.142000198364258 4.142000198364258,7.5 0,7.5 C-4.142000198364258,7.5 -7.5,4.142000198364258 -7.5,0 C-7.5,-4.142000198364258 -4.142000198364258,-7.5 0,-7.5z"></path></g></g><g transform="matrix(0,-1,1,0,87.75,256.25)" opacity="1" style="display: block;"><g opacity="1" transform="matrix(1,0,0,1,7.75,7.75)"><path fill="rgb(255,254,255)" fill-opacity="1" d=" M0,7.5 C4.142000198364258,7.5 7.5,4.142000198364258 7.5,0 C7.5,-4.142000198364258 4.142000198364258,-7.5 0,-7.5 C-4.142000198364258,-7.5 -7.5,-4.142000198364258 -7.5,0 C-7.5,4.142000198364258 -4.142000198364258,7.5 0,7.5z"></path></g></g><g transform="matrix(0,-1,1,0,85.75,295.25)" opacity="1" style="display: block;"><g opacity="1" transform="matrix(1,0,0,1,5.25,5.25)"><path fill="rgb(255,254,255)" fill-opacity="1" d=" M0,-5 C2.760999917984009,-5 5,-2.76200008392334 5,0 C5,2.760999917984009 2.760999917984009,5 0,5 C-2.760999917984009,5 -5,2.760999917984009 -5,0 C-5,-2.76200008392334 -2.760999917984009,-5 0,-5z"></path></g><g opacity="1" transform="matrix(1,0,0,1,5.25,15.25)"><path fill="rgb(255,254,255)" fill-opacity="1" d=" M0,-5 C2.760999917984009,-5 5,-2.76200008392334 5,0 C5,2.760999917984009 2.760999917984009,5 0,5 C-2.760999917984009,5 -5,2.760999917984009 -5,0 C-5,-2.76200008392334 -2.760999917984009,-5 0,-5z"></path></g><g opacity="1" transform="matrix(1,0,0,1,15.25,5.25)"><path fill="rgb(255,254,255)" fill-opacity="1" d=" M0,-5 C2.760999917984009,-5 5,-2.76200008392334 5,0 C5,2.760999917984009 2.760999917984009,5 0,5 C-2.760999917984009,5 -5,2.760999917984009 -5,0 C-5,-2.76200008392334 -2.760999917984009,-5 0,-5z"></path></g><g opacity="1" transform="matrix(1,0,0,1,15.25,15.25)"><path fill="rgb(255,254,255)" fill-opacity="1" d=" M0,-5 C2.760999917984009,-5 5,-2.76200008392334 5,0 C5,2.760999917984009 2.760999917984009,5 0,5 C-2.760999917984009,5 -5,2.760999917984009 -5,0 C-5,-2.76200008392334 -2.760999917984009,-5 0,-5z"></path></g></g><g transform="matrix(0,-1,1,0,47.75,258.25)" opacity="1" style="display: block;"><g opacity="1" transform="matrix(1,0,0,1,5.25,5.25)"><path fill="rgb(255,254,255)" fill-opacity="1" d=" M0,-5 C2.760999917984009,-5 5,-2.76200008392334 5,0 C5,2.760999917984009 2.760999917984009,5 0,5 C-2.760999917984009,5 -5,2.760999917984009 -5,0 C-5,-2.76200008392334 -2.760999917984009,-5 0,-5z"></path></g><g opacity="1" transform="matrix(1,0,0,1,5.25,15.25)"><path fill="rgb(255,254,255)" fill-opacity="1" d=" M0,-5 C2.760999917984009,-5 5,-2.76200008392334 5,0 C5,2.760999917984009 2.760999917984009,5 0,5 C-2.760999917984009,5 -5,2.760999917984009 -5,0 C-5,-2.76200008392334 -2.760999917984009,-5 0,-5z"></path></g><g opacity="1" transform="matrix(1,0,0,1,15.25,5.25)"><path fill="rgb(255,254,255)" fill-opacity="1" d=" M0,-5 C2.760999917984009,-5 5,-2.76200008392334 5,0 C5,2.760999917984009 2.760999917984009,5 0,5 C-2.760999917984009,5 -5,2.760999917984009 -5,0 C-5,-2.76200008392334 -2.760999917984009,-5 0,-5z"></path></g><g opacity="1" transform="matrix(1,0,0,1,15.25,15.25)"><path fill="rgb(255,254,255)" fill-opacity="1" d=" M0,-5 C2.760999917984009,-5 5,-2.76200008392334 5,0 C5,2.760999917984009 2.760999917984009,5 0,5 C-2.760999917984009,5 -5,2.760999917984009 -5,0 C-5,-2.76200008392334 -2.760999917984009,-5 0,-5z"></path></g></g><g transform="matrix(0,-1,1,0,49.75,293.25)" opacity="1" style="display: block;"><g opacity="1" transform="matrix(1,0,0,1,7.75,7.75)"><path fill="rgb(0,244,201)" fill-opacity="1" d=" M0,-7.5 C4.142000198364258,-7.5 7.5,-4.142000198364258 7.5,0 C7.5,4.142000198364258 4.142000198364258,7.5 0,7.5 C-4.142000198364258,7.5 -7.5,4.142000198364258 -7.5,0 C-7.5,-4.142000198364258 -4.142000198364258,-7.5 0,-7.5z"></path></g></g><g transform="matrix(0,-1,1,0,49.75,331.25)" opacity="1" style="display: block;"><g opacity="1" transform="matrix(1,0,0,1,7.75,7.75)"><path fill="rgb(255,254,255)" fill-opacity="1" d=" M0,-7.5 C4.142000198364258,-7.5 7.5,-4.142000198364258 7.5,0 C7.5,4.142000198364258 4.142000198364258,7.5 0,7.5 C-4.142000198364258,7.5 -7.5,4.142000198364258 -7.5,0 C-7.5,-4.142000198364258 -4.142000198364258,-7.5 0,-7.5z"></path></g></g><g transform="matrix(0,-1,1,0,11.75,293.25)" opacity="1" style="display: block;"><g opacity="1" transform="matrix(1,0,0,1,7.75,7.75)"><path fill="rgb(255,254,255)" fill-opacity="1" d=" M0,-7.5 C4.142000198364258,-7.5 7.5,-4.142000198364258 7.5,0 C7.5,4.142000198364258 4.142000198364258,7.5 0,7.5 C-4.142000198364258,7.5 -7.5,4.142000198364258 -7.5,0 C-7.5,-4.142000198364258 -4.142000198364258,-7.5 0,-7.5z"></path></g></g><g transform="matrix(0,-1,1,0,8.75100040435791,334.2469787597656)" opacity="1" style="display: block;"><g opacity="1" transform="matrix(1,0,0,1,10.855999946594238,10.855999946594238)"><path fill="rgb(0,244,201)" fill-opacity="1" d=" M0,-10.607000350952148 C0,-10.607000350952148 10.605999946594238,0 10.605999946594238,0 C10.605999946594238,0 0,10.607000350952148 0,10.607000350952148 C0,10.607000350952148 -10.605999946594238,0 -10.605999946594238,0 C-10.605999946594238,0 0,-10.607000350952148 0,-10.607000350952148z"></path></g></g></g></svg>