<svg xmlns="http://www.w3.org/2000/svg" xmlns:xlink="http://www.w3.org/1999/xlink" viewBox="0 0 343 343" width="343" height="343" preserveAspectRatio="xMidYMid meet" style="width: 100%; height: 100%; transform: translate3d(0px, 0px, 0px); content-visibility: visible;"><defs><clipPath id="__lottie_element_362"><rect width="343" height="343" x="0" y="0"></rect></clipPath></defs><g clip-path="url(#__lottie_element_362)"><g transform="matrix(1,0,0,1,163.75,163.75)" opacity="1" style="display: block;"><g opacity="1" transform="matrix(1,0,0,1,7.75,7.75)"><path fill="rgb(0,244,201)" fill-opacity="1" d=" M-7.5,-7.5 C-7.5,-7.5 7.5,-7.5 7.5,-7.5 C7.5,-7.5 7.5,7.5 7.5,7.5 C7.5,7.5 -7.5,7.5 -7.5,7.5 C-7.5,7.5 -7.5,-7.5 -7.5,-7.5z"></path></g></g><g transform="matrix(1,0,0,1,163.052001953125,125.05300903320312)" opacity="1" style="display: block;"><g opacity="1" transform="matrix(1,0,0,1,9.09000015258789,9.09000015258789)"><path fill="rgb(255,254,255)" fill-opacity="1" d=" M-0.003000000026077032,-3.5339999198913574 C-0.003000000026077032,-3.5339999198913574 3.5329999923706055,0.0020000000949949026 3.5329999923706055,0.0020000000949949026 C3.5329999923706055,0.0020000000949949026 0.003000000026077032,3.5320000648498535 0.003000000026077032,3.5320000648498535 C0.003000000026077032,3.5320000648498535 -3.5329999923706055,-0.003000000026077032 -3.5329999923706055,-0.003000000026077032 C-3.5329999923706055,-0.003000000026077032 -0.003000000026077032,-3.5339999198913574 -0.003000000026077032,-3.5339999198913574 C-0.003000000026077032,-3.5339999198913574 -5.306000232696533,-8.836999893188477 -5.306000232696533,-8.836999893188477 C-5.306000232696533,-8.836999893188477 -8.84000015258789,-5.302999973297119 -8.84000015258789,-5.302999973297119 C-8.84000015258789,-5.302999973297119 -3.5369999408721924,0.0010000000474974513 -3.5369999408721924,0.0010000000474974513 C-3.5369999408721924,0.0010000000474974513 -8.83899974822998,5.302999973297119 -8.83899974822998,5.302999973297119 C-8.83899974822998,5.302999973297119 -6.060999870300293,8.081000328063965 -6.060999870300293,8.081000328063965 C-6.060999870300293,8.081000328063965 -5.302999973297119,8.838000297546387 -5.302999973297119,8.838000297546387 C-5.302999973297119,8.838000297546387 -0.003000000026077032,3.5360000133514404 -0.003000000026077032,3.5360000133514404 C-0.003000000026077032,3.5360000133514404 5.302999973297119,8.84000015258789 5.302999973297119,8.84000015258789 C5.302999973297119,8.84000015258789 8.836000442504883,5.304999828338623 8.836000442504883,5.304999828338623 C8.836000442504883,5.304999828338623 3.5339999198913574,0.0020000000949949026 3.5339999198913574,0.0020000000949949026 C3.5339999198913574,0.0020000000949949026 8.84000015258789,-5.302999973297119 8.84000015258789,-5.302999973297119 C8.84000015258789,-5.302999973297119 5.304999828338623,-8.84000015258789 5.304999828338623,-8.84000015258789 C5.304999828338623,-8.84000015258789 -0.003000000026077032,-3.5339999198913574 -0.003000000026077032,-3.5339999198913574z"></path></g></g><g transform="matrix(1,0,0,1,163.052001953125,201.0540008544922)" opacity="1" style="display: block;"><g opacity="1" transform="matrix(1,0,0,1,9.09000015258789,9.08899974822998)"><path fill="rgb(255,254,255)" fill-opacity="1" d=" M-0.003000000026077032,-3.5329999923706055 C-0.003000000026077032,-3.5329999923706055 3.5329999923706055,0.0010000000474974513 3.5329999923706055,0.0010000000474974513 C3.5329999923706055,0.0010000000474974513 0.003000000026077032,3.5309998989105225 0.003000000026077032,3.5309998989105225 C0.003000000026077032,3.5309998989105225 -3.5329999923706055,-0.003000000026077032 -3.5329999923706055,-0.003000000026077032 C-3.5329999923706055,-0.003000000026077032 -0.003000000026077032,-3.5329999923706055 -0.003000000026077032,-3.5329999923706055 C-0.003000000026077032,-3.5329999923706055 -5.306000232696533,-8.836000442504883 -5.306000232696533,-8.836000442504883 C-5.306000232696533,-8.836000442504883 -8.84000015258789,-5.302000045776367 -8.84000015258789,-5.302000045776367 C-8.84000015258789,-5.302000045776367 -3.5369999408721924,0 -3.5369999408721924,0 C-3.5369999408721924,0 -8.83899974822998,5.302999973297119 -8.83899974822998,5.302999973297119 C-8.83899974822998,5.302999973297119 -7.071000099182129,7.070000171661377 -7.071000099182129,7.070000171661377 C-7.071000099182129,7.070000171661377 -5.302999973297119,8.836999893188477 -5.302999973297119,8.836999893188477 C-5.302999973297119,8.836999893188477 -0.003000000026077032,3.5369999408721924 -0.003000000026077032,3.5369999408721924 C-0.003000000026077032,3.5369999408721924 5.302999973297119,8.83899974822998 5.302999973297119,8.83899974822998 C5.302999973297119,8.83899974822998 8.836000442504883,5.304999828338623 8.836000442504883,5.304999828338623 C8.836000442504883,5.304999828338623 3.5339999198913574,0.0010000000474974513 3.5339999198913574,0.0010000000474974513 C3.5339999198913574,0.0010000000474974513 8.84000015258789,-5.302999973297119 8.84000015258789,-5.302999973297119 C8.84000015258789,-5.302999973297119 5.304999828338623,-8.83899974822998 5.304999828338623,-8.83899974822998 C5.304999828338623,-8.83899974822998 -0.003000000026077032,-3.5329999923706055 -0.003000000026077032,-3.5329999923706055z"></path></g></g><g transform="matrix(1,0,0,1,163.75,87.75)" opacity="1" style="display: block;"><g opacity="1" transform="matrix(1,0,0,1,7.75,7.75)"><path fill="rgb(0,244,201)" fill-opacity="1" d=" M-7.5,-7.5 C-7.5,-7.5 7.5,-7.5 7.5,-7.5 C7.5,-7.5 7.5,7.5 7.5,7.5 C7.5,7.5 -7.5,7.5 -7.5,7.5 C-7.5,7.5 -7.5,-7.5 -7.5,-7.5z"></path></g></g><g transform="matrix(1,0,0,1,163.75,239.75)" opacity="1" style="display: block;"><g opacity="1" transform="matrix(1,0,0,1,7.75,7.75)"><path fill="rgb(0,244,201)" fill-opacity="1" d=" M-7.5,-7.5 C-7.5,-7.5 7.5,-7.5 7.5,-7.5 C7.5,-7.5 7.5,7.5 7.5,7.5 C7.5,7.5 -7.5,7.5 -7.5,7.5 C-7.5,7.5 -7.5,-7.5 -7.5,-7.5z"></path></g></g><g transform="matrix(1,0,0,1,163.05101013183594,49.05400085449219)" opacity="1" style="display: block;"><g opacity="1" transform="matrix(1,0,0,1,9.09000015258789,9.08899974822998)"><path fill="rgb(255,254,255)" fill-opacity="1" d=" M-0.0020000000949949026,-3.5329999923706055 C-0.0020000000949949026,-3.5329999923706055 3.5329999923706055,0.0020000000949949026 3.5329999923706055,0.0020000000949949026 C3.5329999923706055,0.0020000000949949026 0.003000000026077032,3.5320000648498535 0.003000000026077032,3.5320000648498535 C0.003000000026077032,3.5320000648498535 -3.5320000648498535,-0.003000000026077032 -3.5320000648498535,-0.003000000026077032 C-3.5320000648498535,-0.003000000026077032 -0.0020000000949949026,-3.5329999923706055 -0.0020000000949949026,-3.5329999923706055 C-0.0020000000949949026,-3.5329999923706055 -5.304999828338623,-8.836000442504883 -5.304999828338623,-8.836000442504883 C-5.304999828338623,-8.836000442504883 -8.84000015258789,-5.302000045776367 -8.84000015258789,-5.302000045776367 C-8.84000015258789,-5.302000045776367 -3.5360000133514404,0 -3.5360000133514404,0 C-3.5360000133514404,0 -8.838000297546387,5.302000045776367 -8.838000297546387,5.302000045776367 C-8.838000297546387,5.302000045776367 -7.070000171661377,7.070000171661377 -7.070000171661377,7.070000171661377 C-7.070000171661377,7.070000171661377 -5.302000045776367,8.836999893188477 -5.302000045776367,8.836999893188477 C-5.302000045776367,8.836999893188477 -0.0020000000949949026,3.5360000133514404 -0.0020000000949949026,3.5360000133514404 C-0.0020000000949949026,3.5360000133514404 5.302999973297119,8.83899974822998 5.302999973297119,8.83899974822998 C5.302999973297119,8.83899974822998 8.836000442504883,5.304999828338623 8.836000442504883,5.304999828338623 C8.836000442504883,5.304999828338623 3.5339999198913574,0.0020000000949949026 3.5339999198913574,0.0020000000949949026 C3.5339999198913574,0.0020000000949949026 8.84000015258789,-5.302999973297119 8.84000015258789,-5.302999973297119 C8.84000015258789,-5.302999973297119 5.304999828338623,-8.83899974822998 5.304999828338623,-8.83899974822998 C5.304999828338623,-8.83899974822998 -0.0020000000949949026,-3.5329999923706055 -0.0020000000949949026,-3.5329999923706055z"></path></g></g><g transform="matrix(1,0,0,1,163.052001953125,277.05401611328125)" opacity="1" style="display: block;"><g opacity="1" transform="matrix(1,0,0,1,9.09000015258789,9.08899974822998)"><path fill="rgb(255,254,255)" fill-opacity="1" d=" M-0.003000000026077032,-3.5339999198913574 C-0.003000000026077032,-3.5339999198913574 3.5329999923706055,0.0010000000474974513 3.5329999923706055,0.0010000000474974513 C3.5329999923706055,0.0010000000474974513 0.003000000026077032,3.5320000648498535 0.003000000026077032,3.5320000648498535 C0.003000000026077032,3.5320000648498535 -3.5329999923706055,-0.003000000026077032 -3.5329999923706055,-0.003000000026077032 C-3.5329999923706055,-0.003000000026077032 -0.003000000026077032,-3.5339999198913574 -0.003000000026077032,-3.5339999198913574 C-0.003000000026077032,-3.5339999198913574 -5.306000232696533,-8.836999893188477 -5.306000232696533,-8.836999893188477 C-5.306000232696533,-8.836999893188477 -8.84000015258789,-5.302000045776367 -8.84000015258789,-5.302000045776367 C-8.84000015258789,-5.302000045776367 -3.5369999408721924,0 -3.5369999408721924,0 C-3.5369999408721924,0 -8.83899974822998,5.302999973297119 -8.83899974822998,5.302999973297119 C-8.83899974822998,5.302999973297119 -7.071000099182129,7.070000171661377 -7.071000099182129,7.070000171661377 C-7.071000099182129,7.070000171661377 -5.302999973297119,8.836999893188477 -5.302999973297119,8.836999893188477 C-5.302999973297119,8.836999893188477 -0.003000000026077032,3.5360000133514404 -0.003000000026077032,3.5360000133514404 C-0.003000000026077032,3.5360000133514404 5.302999973297119,8.83899974822998 5.302999973297119,8.83899974822998 C5.302999973297119,8.83899974822998 8.836000442504883,5.304999828338623 8.836000442504883,5.304999828338623 C8.836000442504883,5.304999828338623 3.5339999198913574,0.0010000000474974513 3.5339999198913574,0.0010000000474974513 C3.5339999198913574,0.0010000000474974513 8.84000015258789,-5.302999973297119 8.84000015258789,-5.302999973297119 C8.84000015258789,-5.302999973297119 5.304999828338623,-8.83899974822998 5.304999828338623,-8.83899974822998 C5.304999828338623,-8.83899974822998 -0.003000000026077032,-3.5339999198913574 -0.003000000026077032,-3.5339999198913574z"></path></g></g><g transform="matrix(1,0,0,1,163.75,11.75)" opacity="1" style="display: block;"><g opacity="1" transform="matrix(1,0,0,1,7.75,7.75)"><path fill="rgb(0,244,201)" fill-opacity="1" d=" M-7.5,-7.5 C-7.5,-7.5 7.5,-7.5 7.5,-7.5 C7.5,-7.5 7.5,7.5 7.5,7.5 C7.5,7.5 -7.5,7.5 -7.5,7.5 C-7.5,7.5 -7.5,-7.5 -7.5,-7.5z"></path></g></g><g transform="matrix(1,0,0,1,163.75,315.75)" opacity="1" style="display: block;"><g opacity="1" transform="matrix(1,0,0,1,7.75,7.75)"><path fill="rgb(0,244,201)" fill-opacity="1" d=" M-7.5,-7.5 C-7.5,-7.5 7.5,-7.5 7.5,-7.5 C7.5,-7.5 7.5,7.5 7.5,7.5 C7.5,7.5 -7.5,7.5 -7.5,7.5 C-7.5,7.5 -7.5,-7.5 -7.5,-7.5z"></path></g></g><g transform="matrix(1,0,0,1,201.052001953125,161.91200256347656)" opacity="1" style="display: block;"><g opacity="1" transform="matrix(1,0,0,1,9.09000015258789,9.08899974822998)"><path fill="rgb(255,254,255)" fill-opacity="1" d=" M-0.003000000026077032,-3.5339999198913574 C-0.003000000026077032,-3.5339999198913574 3.5320000648498535,0.0010000000474974513 3.5320000648498535,0.0010000000474974513 C3.5320000648498535,0.0010000000474974513 0.0020000000949949026,3.5329999923706055 0.0020000000949949026,3.5329999923706055 C0.0020000000949949026,3.5329999923706055 -3.5320000648498535,-0.003000000026077032 -3.5320000648498535,-0.003000000026077032 C-3.5320000648498535,-0.003000000026077032 -0.003000000026077032,-3.5339999198913574 -0.003000000026077032,-3.5339999198913574 C-0.003000000026077032,-3.5339999198913574 -5.306000232696533,-8.836000442504883 -5.306000232696533,-8.836000442504883 C-5.306000232696533,-8.836000442504883 -8.84000015258789,-5.302000045776367 -8.84000015258789,-5.302000045776367 C-8.84000015258789,-5.302000045776367 -3.5360000133514404,0 -3.5360000133514404,0 C-3.5360000133514404,0 -8.83899974822998,5.302000045776367 -8.83899974822998,5.302000045776367 C-8.83899974822998,5.302000045776367 -5.302999973297119,8.838000297546387 -5.302999973297119,8.838000297546387 C-5.302999973297119,8.838000297546387 -0.003000000026077032,3.5360000133514404 -0.003000000026077032,3.5360000133514404 C-0.003000000026077032,3.5360000133514404 5.302999973297119,8.83899974822998 5.302999973297119,8.83899974822998 C5.302999973297119,8.83899974822998 8.835000038146973,5.304999828338623 8.835000038146973,5.304999828338623 C8.835000038146973,5.304999828338623 3.5339999198913574,0.0020000000949949026 3.5339999198913574,0.0020000000949949026 C3.5339999198913574,0.0020000000949949026 8.84000015258789,-5.302999973297119 8.84000015258789,-5.302999973297119 C8.84000015258789,-5.302999973297119 5.303999900817871,-8.83899974822998 5.303999900817871,-8.83899974822998 C5.303999900817871,-8.83899974822998 -0.003000000026077032,-3.5339999198913574 -0.003000000026077032,-3.5339999198913574z"></path></g></g><g transform="matrix(1,0,0,1,201.75,201.75)" opacity="1" style="display: block;"><g opacity="1" transform="matrix(1,0,0,1,7.75,7.75)"><path fill="rgb(0,244,201)" fill-opacity="1" d=" M-7.5,-7.5 C-7.5,-7.5 7.5,-7.5 7.5,-7.5 C7.5,-7.5 7.5,7.5 7.5,7.5 C7.5,7.5 -7.5,7.5 -7.5,7.5 C-7.5,7.5 -7.5,-7.5 -7.5,-7.5z"></path></g></g><g transform="matrix(1,0,0,1,201.75,126.39300537109375)" opacity="1" style="display: block;"><g opacity="1" transform="matrix(1,0,0,1,7.75,7.75)"><path fill="rgb(0,244,201)" fill-opacity="1" d=" M-7.5,-7.5 C-7.5,-7.5 7.5,-7.5 7.5,-7.5 C7.5,-7.5 7.5,7.5 7.5,7.5 C7.5,7.5 -7.5,7.5 -7.5,7.5 C-7.5,7.5 -7.5,-7.5 -7.5,-7.5z"></path></g></g><g transform="matrix(1,0,0,1,124.052001953125,161.91200256347656)" opacity="1" style="display: block;"><g opacity="1" transform="matrix(1,0,0,1,9.09000015258789,9.08899974822998)"><path fill="rgb(255,254,255)" fill-opacity="1" d=" M-0.0020000000949949026,-3.5339999198913574 C-0.0020000000949949026,-3.5339999198913574 3.5329999923706055,0.0010000000474974513 3.5329999923706055,0.0010000000474974513 C3.5329999923706055,0.0010000000474974513 0.003000000026077032,3.5329999923706055 0.003000000026077032,3.5329999923706055 C0.003000000026077032,3.5329999923706055 -3.5320000648498535,-0.003000000026077032 -3.5320000648498535,-0.003000000026077032 C-3.5320000648498535,-0.003000000026077032 -0.0020000000949949026,-3.5339999198913574 -0.0020000000949949026,-3.5339999198913574 C-0.0020000000949949026,-3.5339999198913574 -5.304999828338623,-8.836999893188477 -5.304999828338623,-8.836999893188477 C-5.304999828338623,-8.836999893188477 -8.84000015258789,-5.302000045776367 -8.84000015258789,-5.302000045776367 C-8.84000015258789,-5.302000045776367 -3.5360000133514404,0 -3.5360000133514404,0 C-3.5360000133514404,0 -8.838000297546387,5.302000045776367 -8.838000297546387,5.302000045776367 C-8.838000297546387,5.302000045776367 -7.071000099182129,7.070000171661377 -7.071000099182129,7.070000171661377 C-7.071000099182129,7.070000171661377 -5.302999973297119,8.838000297546387 -5.302999973297119,8.838000297546387 C-5.302999973297119,8.838000297546387 -0.0020000000949949026,3.5360000133514404 -0.0020000000949949026,3.5360000133514404 C-0.0020000000949949026,3.5360000133514404 5.302000045776367,8.83899974822998 5.302000045776367,8.83899974822998 C5.302000045776367,8.83899974822998 8.836000442504883,5.304999828338623 8.836000442504883,5.304999828338623 C8.836000442504883,5.304999828338623 3.5339999198913574,0.0020000000949949026 3.5339999198913574,0.0020000000949949026 C3.5339999198913574,0.0020000000949949026 8.84000015258789,-5.302999973297119 8.84000015258789,-5.302999973297119 C8.84000015258789,-5.302999973297119 5.303999900817871,-8.83899974822998 5.303999900817871,-8.83899974822998 C5.303999900817871,-8.83899974822998 -0.0020000000949949026,-3.5339999198913574 -0.0020000000949949026,-3.5339999198913574z"></path></g></g><g transform="matrix(1,0,0,1,125.75,201.75)" opacity="1" style="display: block;"><g opacity="1" transform="matrix(1,0,0,1,7.75,7.75)"><path fill="rgb(0,244,201)" fill-opacity="1" d=" M-7.5,-7.5 C-7.5,-7.5 7.5,-7.5 7.5,-7.5 C7.5,-7.5 7.5,7.5 7.5,7.5 C7.5,7.5 -7.5,7.5 -7.5,7.5 C-7.5,7.5 -7.5,-7.5 -7.5,-7.5z"></path></g></g><g transform="matrix(1,0,0,1,125.75,125.75)" opacity="1" style="display: block;"><g opacity="1" transform="matrix(1,0,0,1,7.75,7.75)"><path fill="rgb(0,244,201)" fill-opacity="1" d=" M-7.5,-7.5 C-7.5,-7.5 7.5,-7.5 7.5,-7.5 C7.5,-7.5 7.5,7.5 7.5,7.5 C7.5,7.5 -7.5,7.5 -7.5,7.5 C-7.5,7.5 -7.5,-7.5 -7.5,-7.5z"></path></g></g><g transform="matrix(1,0,0,1,86.75,163.75)" opacity="1" style="display: block;"><g opacity="1" transform="matrix(1,0,0,1,7.75,7.75)"><path fill="rgb(0,244,201)" fill-opacity="1" d=" M-7.5,-7.5 C-7.5,-7.5 7.5,-7.5 7.5,-7.5 C7.5,-7.5 7.5,7.5 7.5,7.5 C7.5,7.5 -7.5,7.5 -7.5,7.5 C-7.5,7.5 -7.5,-7.5 -7.5,-7.5z"></path></g></g><g transform="matrix(1,0,0,1,86.052001953125,125.05300903320312)" opacity="1" style="display: block;"><g opacity="1" transform="matrix(1,0,0,1,9.09000015258789,9.09000015258789)"><path fill="rgb(255,254,255)" fill-opacity="1" d=" M-0.003000000026077032,-3.5339999198913574 C-0.003000000026077032,-3.5339999198913574 3.5329999923706055,0.0020000000949949026 3.5329999923706055,0.0020000000949949026 C3.5329999923706055,0.0020000000949949026 0.003000000026077032,3.5320000648498535 0.003000000026077032,3.5320000648498535 C0.003000000026077032,3.5320000648498535 -3.5329999923706055,-0.003000000026077032 -3.5329999923706055,-0.003000000026077032 C-3.5329999923706055,-0.003000000026077032 -0.003000000026077032,-3.5339999198913574 -0.003000000026077032,-3.5339999198913574 C-0.003000000026077032,-3.5339999198913574 -5.306000232696533,-8.836999893188477 -5.306000232696533,-8.836999893188477 C-5.306000232696533,-8.836999893188477 -8.84000015258789,-5.302999973297119 -8.84000015258789,-5.302999973297119 C-8.84000015258789,-5.302999973297119 -3.5369999408721924,0.0010000000474974513 -3.5369999408721924,0.0010000000474974513 C-3.5369999408721924,0.0010000000474974513 -8.83899974822998,5.302999973297119 -8.83899974822998,5.302999973297119 C-8.83899974822998,5.302999973297119 -6.060999870300293,8.081000328063965 -6.060999870300293,8.081000328063965 C-6.060999870300293,8.081000328063965 -5.302999973297119,8.838000297546387 -5.302999973297119,8.838000297546387 C-5.302999973297119,8.838000297546387 -0.003000000026077032,3.5360000133514404 -0.003000000026077032,3.5360000133514404 C-0.003000000026077032,3.5360000133514404 5.302999973297119,8.84000015258789 5.302999973297119,8.84000015258789 C5.302999973297119,8.84000015258789 8.836000442504883,5.304999828338623 8.836000442504883,5.304999828338623 C8.836000442504883,5.304999828338623 3.5339999198913574,0.0020000000949949026 3.5339999198913574,0.0020000000949949026 C3.5339999198913574,0.0020000000949949026 8.84000015258789,-5.302999973297119 8.84000015258789,-5.302999973297119 C8.84000015258789,-5.302999973297119 5.304999828338623,-8.84000015258789 5.304999828338623,-8.84000015258789 C5.304999828338623,-8.84000015258789 -0.003000000026077032,-3.5339999198913574 -0.003000000026077032,-3.5339999198913574z"></path></g></g><g transform="matrix(1,0,0,1,86.052001953125,201.0540008544922)" opacity="1" style="display: block;"><g opacity="1" transform="matrix(1,0,0,1,9.09000015258789,9.08899974822998)"><path fill="rgb(255,254,255)" fill-opacity="1" d=" M-0.003000000026077032,-3.5329999923706055 C-0.003000000026077032,-3.5329999923706055 3.5329999923706055,0.0010000000474974513 3.5329999923706055,0.0010000000474974513 C3.5329999923706055,0.0010000000474974513 0.003000000026077032,3.5309998989105225 0.003000000026077032,3.5309998989105225 C0.003000000026077032,3.5309998989105225 -3.5329999923706055,-0.003000000026077032 -3.5329999923706055,-0.003000000026077032 C-3.5329999923706055,-0.003000000026077032 -0.003000000026077032,-3.5329999923706055 -0.003000000026077032,-3.5329999923706055 C-0.003000000026077032,-3.5329999923706055 -5.306000232696533,-8.836000442504883 -5.306000232696533,-8.836000442504883 C-5.306000232696533,-8.836000442504883 -8.84000015258789,-5.302000045776367 -8.84000015258789,-5.302000045776367 C-8.84000015258789,-5.302000045776367 -3.5369999408721924,0 -3.5369999408721924,0 C-3.5369999408721924,0 -8.83899974822998,5.302999973297119 -8.83899974822998,5.302999973297119 C-8.83899974822998,5.302999973297119 -7.071000099182129,7.070000171661377 -7.071000099182129,7.070000171661377 C-7.071000099182129,7.070000171661377 -5.302999973297119,8.836999893188477 -5.302999973297119,8.836999893188477 C-5.302999973297119,8.836999893188477 -0.003000000026077032,3.5369999408721924 -0.003000000026077032,3.5369999408721924 C-0.003000000026077032,3.5369999408721924 5.302999973297119,8.83899974822998 5.302999973297119,8.83899974822998 C5.302999973297119,8.83899974822998 8.836000442504883,5.304999828338623 8.836000442504883,5.304999828338623 C8.836000442504883,5.304999828338623 3.5339999198913574,0.0010000000474974513 3.5339999198913574,0.0010000000474974513 C3.5339999198913574,0.0010000000474974513 8.84000015258789,-5.302999973297119 8.84000015258789,-5.302999973297119 C8.84000015258789,-5.302999973297119 5.304999828338623,-8.83899974822998 5.304999828338623,-8.83899974822998 C5.304999828338623,-8.83899974822998 -0.003000000026077032,-3.5329999923706055 -0.003000000026077032,-3.5329999923706055z"></path></g></g><g transform="matrix(1,0,0,1,86.75,87.75)" opacity="1" style="display: block;"><g opacity="1" transform="matrix(1,0,0,1,7.75,7.75)"><path fill="rgb(0,244,201)" fill-opacity="1" d=" M-7.5,-7.5 C-7.5,-7.5 7.5,-7.5 7.5,-7.5 C7.5,-7.5 7.5,7.5 7.5,7.5 C7.5,7.5 -7.5,7.5 -7.5,7.5 C-7.5,7.5 -7.5,-7.5 -7.5,-7.5z"></path></g></g><g transform="matrix(1,0,0,1,86.75,239.75)" opacity="1" style="display: block;"><g opacity="1" transform="matrix(1,0,0,1,7.75,7.75)"><path fill="rgb(0,244,201)" fill-opacity="1" d=" M-7.5,-7.5 C-7.5,-7.5 7.5,-7.5 7.5,-7.5 C7.5,-7.5 7.5,7.5 7.5,7.5 C7.5,7.5 -7.5,7.5 -7.5,7.5 C-7.5,7.5 -7.5,-7.5 -7.5,-7.5z"></path></g></g><g transform="matrix(1,0,0,1,86.05099487304688,49.05400085449219)" opacity="1" style="display: block;"><g opacity="1" transform="matrix(1,0,0,1,9.09000015258789,9.08899974822998)"><path fill="rgb(255,254,255)" fill-opacity="1" d=" M-0.0020000000949949026,-3.5329999923706055 C-0.0020000000949949026,-3.5329999923706055 3.5329999923706055,0.0020000000949949026 3.5329999923706055,0.0020000000949949026 C3.5329999923706055,0.0020000000949949026 0.003000000026077032,3.5320000648498535 0.003000000026077032,3.5320000648498535 C0.003000000026077032,3.5320000648498535 -3.5320000648498535,-0.003000000026077032 -3.5320000648498535,-0.003000000026077032 C-3.5320000648498535,-0.003000000026077032 -0.0020000000949949026,-3.5329999923706055 -0.0020000000949949026,-3.5329999923706055 C-0.0020000000949949026,-3.5329999923706055 -5.304999828338623,-8.836000442504883 -5.304999828338623,-8.836000442504883 C-5.304999828338623,-8.836000442504883 -8.84000015258789,-5.302000045776367 -8.84000015258789,-5.302000045776367 C-8.84000015258789,-5.302000045776367 -3.5360000133514404,0 -3.5360000133514404,0 C-3.5360000133514404,0 -8.838000297546387,5.302000045776367 -8.838000297546387,5.302000045776367 C-8.838000297546387,5.302000045776367 -7.070000171661377,7.070000171661377 -7.070000171661377,7.070000171661377 C-7.070000171661377,7.070000171661377 -5.302000045776367,8.836999893188477 -5.302000045776367,8.836999893188477 C-5.302000045776367,8.836999893188477 -0.0020000000949949026,3.5360000133514404 -0.0020000000949949026,3.5360000133514404 C-0.0020000000949949026,3.5360000133514404 5.302999973297119,8.83899974822998 5.302999973297119,8.83899974822998 C5.302999973297119,8.83899974822998 8.836000442504883,5.304999828338623 8.836000442504883,5.304999828338623 C8.836000442504883,5.304999828338623 3.5339999198913574,0.0020000000949949026 3.5339999198913574,0.0020000000949949026 C3.5339999198913574,0.0020000000949949026 8.84000015258789,-5.302999973297119 8.84000015258789,-5.302999973297119 C8.84000015258789,-5.302999973297119 5.304999828338623,-8.83899974822998 5.304999828338623,-8.83899974822998 C5.304999828338623,-8.83899974822998 -0.0020000000949949026,-3.5329999923706055 -0.0020000000949949026,-3.5329999923706055z"></path></g></g><g transform="matrix(1,0,0,1,86.052001953125,277.05401611328125)" opacity="1" style="display: block;"><g opacity="1" transform="matrix(1,0,0,1,9.09000015258789,9.08899974822998)"><path fill="rgb(255,254,255)" fill-opacity="1" d=" M-0.003000000026077032,-3.5339999198913574 C-0.003000000026077032,-3.5339999198913574 3.5329999923706055,0.0010000000474974513 3.5329999923706055,0.0010000000474974513 C3.5329999923706055,0.0010000000474974513 0.003000000026077032,3.5320000648498535 0.003000000026077032,3.5320000648498535 C0.003000000026077032,3.5320000648498535 -3.5329999923706055,-0.003000000026077032 -3.5329999923706055,-0.003000000026077032 C-3.5329999923706055,-0.003000000026077032 -0.003000000026077032,-3.5339999198913574 -0.003000000026077032,-3.5339999198913574 C-0.003000000026077032,-3.5339999198913574 -5.306000232696533,-8.836999893188477 -5.306000232696533,-8.836999893188477 C-5.306000232696533,-8.836999893188477 -8.84000015258789,-5.302000045776367 -8.84000015258789,-5.302000045776367 C-8.84000015258789,-5.302000045776367 -3.5369999408721924,0 -3.5369999408721924,0 C-3.5369999408721924,0 -8.83899974822998,5.302999973297119 -8.83899974822998,5.302999973297119 C-8.83899974822998,5.302999973297119 -7.071000099182129,7.070000171661377 -7.071000099182129,7.070000171661377 C-7.071000099182129,7.070000171661377 -5.302999973297119,8.836999893188477 -5.302999973297119,8.836999893188477 C-5.302999973297119,8.836999893188477 -0.003000000026077032,3.5360000133514404 -0.003000000026077032,3.5360000133514404 C-0.003000000026077032,3.5360000133514404 5.302999973297119,8.83899974822998 5.302999973297119,8.83899974822998 C5.302999973297119,8.83899974822998 8.836000442504883,5.304999828338623 8.836000442504883,5.304999828338623 C8.836000442504883,5.304999828338623 3.5339999198913574,0.0010000000474974513 3.5339999198913574,0.0010000000474974513 C3.5339999198913574,0.0010000000474974513 8.84000015258789,-5.302999973297119 8.84000015258789,-5.302999973297119 C8.84000015258789,-5.302999973297119 5.304999828338623,-8.83899974822998 5.304999828338623,-8.83899974822998 C5.304999828338623,-8.83899974822998 -0.003000000026077032,-3.5339999198913574 -0.003000000026077032,-3.5339999198913574z"></path></g></g><g transform="matrix(1,0,0,1,239.75,163.75)" opacity="1" style="display: block;"><g opacity="1" transform="matrix(1,0,0,1,7.75,7.75)"><path fill="rgb(0,244,201)" fill-opacity="1" d=" M-7.5,-7.5 C-7.5,-7.5 7.5,-7.5 7.5,-7.5 C7.5,-7.5 7.5,7.5 7.5,7.5 C7.5,7.5 -7.5,7.5 -7.5,7.5 C-7.5,7.5 -7.5,-7.5 -7.5,-7.5z"></path></g></g><g transform="matrix(1,0,0,1,239.052001953125,125.05300903320312)" opacity="1" style="display: block;"><g opacity="1" transform="matrix(1,0,0,1,9.09000015258789,9.09000015258789)"><path fill="rgb(255,254,255)" fill-opacity="1" d=" M-0.003000000026077032,-3.5339999198913574 C-0.003000000026077032,-3.5339999198913574 3.5329999923706055,0.0020000000949949026 3.5329999923706055,0.0020000000949949026 C3.5329999923706055,0.0020000000949949026 0.003000000026077032,3.5320000648498535 0.003000000026077032,3.5320000648498535 C0.003000000026077032,3.5320000648498535 -3.5329999923706055,-0.003000000026077032 -3.5329999923706055,-0.003000000026077032 C-3.5329999923706055,-0.003000000026077032 -0.003000000026077032,-3.5339999198913574 -0.003000000026077032,-3.5339999198913574 C-0.003000000026077032,-3.5339999198913574 -5.306000232696533,-8.836999893188477 -5.306000232696533,-8.836999893188477 C-5.306000232696533,-8.836999893188477 -8.84000015258789,-5.302999973297119 -8.84000015258789,-5.302999973297119 C-8.84000015258789,-5.302999973297119 -3.5369999408721924,0.0010000000474974513 -3.5369999408721924,0.0010000000474974513 C-3.5369999408721924,0.0010000000474974513 -8.83899974822998,5.302999973297119 -8.83899974822998,5.302999973297119 C-8.83899974822998,5.302999973297119 -6.060999870300293,8.081000328063965 -6.060999870300293,8.081000328063965 C-6.060999870300293,8.081000328063965 -5.302999973297119,8.838000297546387 -5.302999973297119,8.838000297546387 C-5.302999973297119,8.838000297546387 -0.003000000026077032,3.5360000133514404 -0.003000000026077032,3.5360000133514404 C-0.003000000026077032,3.5360000133514404 5.302999973297119,8.84000015258789 5.302999973297119,8.84000015258789 C5.302999973297119,8.84000015258789 8.836000442504883,5.304999828338623 8.836000442504883,5.304999828338623 C8.836000442504883,5.304999828338623 3.5339999198913574,0.0020000000949949026 3.5339999198913574,0.0020000000949949026 C3.5339999198913574,0.0020000000949949026 8.84000015258789,-5.302999973297119 8.84000015258789,-5.302999973297119 C8.84000015258789,-5.302999973297119 5.304999828338623,-8.84000015258789 5.304999828338623,-8.84000015258789 C5.304999828338623,-8.84000015258789 -0.003000000026077032,-3.5339999198913574 -0.003000000026077032,-3.5339999198913574z"></path></g></g><g transform="matrix(1,0,0,1,239.052001953125,201.0540008544922)" opacity="1" style="display: block;"><g opacity="1" transform="matrix(1,0,0,1,9.09000015258789,9.08899974822998)"><path fill="rgb(255,254,255)" fill-opacity="1" d=" M-0.003000000026077032,-3.5329999923706055 C-0.003000000026077032,-3.5329999923706055 3.5329999923706055,0.0010000000474974513 3.5329999923706055,0.0010000000474974513 C3.5329999923706055,0.0010000000474974513 0.003000000026077032,3.5309998989105225 0.003000000026077032,3.5309998989105225 C0.003000000026077032,3.5309998989105225 -3.5329999923706055,-0.003000000026077032 -3.5329999923706055,-0.003000000026077032 C-3.5329999923706055,-0.003000000026077032 -0.003000000026077032,-3.5329999923706055 -0.003000000026077032,-3.5329999923706055 C-0.003000000026077032,-3.5329999923706055 -5.306000232696533,-8.836000442504883 -5.306000232696533,-8.836000442504883 C-5.306000232696533,-8.836000442504883 -8.84000015258789,-5.302000045776367 -8.84000015258789,-5.302000045776367 C-8.84000015258789,-5.302000045776367 -3.5369999408721924,0 -3.5369999408721924,0 C-3.5369999408721924,0 -8.83899974822998,5.302999973297119 -8.83899974822998,5.302999973297119 C-8.83899974822998,5.302999973297119 -7.071000099182129,7.070000171661377 -7.071000099182129,7.070000171661377 C-7.071000099182129,7.070000171661377 -5.302999973297119,8.836999893188477 -5.302999973297119,8.836999893188477 C-5.302999973297119,8.836999893188477 -0.003000000026077032,3.5369999408721924 -0.003000000026077032,3.5369999408721924 C-0.003000000026077032,3.5369999408721924 5.302999973297119,8.83899974822998 5.302999973297119,8.83899974822998 C5.302999973297119,8.83899974822998 8.836000442504883,5.304999828338623 8.836000442504883,5.304999828338623 C8.836000442504883,5.304999828338623 3.5339999198913574,0.0010000000474974513 3.5339999198913574,0.0010000000474974513 C3.5339999198913574,0.0010000000474974513 8.84000015258789,-5.302999973297119 8.84000015258789,-5.302999973297119 C8.84000015258789,-5.302999973297119 5.304999828338623,-8.83899974822998 5.304999828338623,-8.83899974822998 C5.304999828338623,-8.83899974822998 -0.003000000026077032,-3.5329999923706055 -0.003000000026077032,-3.5329999923706055z"></path></g></g><g transform="matrix(1,0,0,1,239.75,87.75)" opacity="1" style="display: block;"><g opacity="1" transform="matrix(1,0,0,1,7.75,7.75)"><path fill="rgb(0,244,201)" fill-opacity="1" d=" M-7.5,-7.5 C-7.5,-7.5 7.5,-7.5 7.5,-7.5 C7.5,-7.5 7.5,7.5 7.5,7.5 C7.5,7.5 -7.5,7.5 -7.5,7.5 C-7.5,7.5 -7.5,-7.5 -7.5,-7.5z"></path></g></g><g transform="matrix(1,0,0,1,239.75,239.75)" opacity="1" style="display: block;"><g opacity="1" transform="matrix(1,0,0,1,7.75,7.75)"><path fill="rgb(0,244,201)" fill-opacity="1" d=" M-7.5,-7.5 C-7.5,-7.5 7.5,-7.5 7.5,-7.5 C7.5,-7.5 7.5,7.5 7.5,7.5 C7.5,7.5 -7.5,7.5 -7.5,7.5 C-7.5,7.5 -7.5,-7.5 -7.5,-7.5z"></path></g></g><g transform="matrix(1,0,0,1,239.05101013183594,49.05400085449219)" opacity="1" style="display: block;"><g opacity="1" transform="matrix(1,0,0,1,9.09000015258789,9.08899974822998)"><path fill="rgb(255,254,255)" fill-opacity="1" d=" M-0.0020000000949949026,-3.5329999923706055 C-0.0020000000949949026,-3.5329999923706055 3.5329999923706055,0.0020000000949949026 3.5329999923706055,0.0020000000949949026 C3.5329999923706055,0.0020000000949949026 0.003000000026077032,3.5320000648498535 0.003000000026077032,3.5320000648498535 C0.003000000026077032,3.5320000648498535 -3.5320000648498535,-0.003000000026077032 -3.5320000648498535,-0.003000000026077032 C-3.5320000648498535,-0.003000000026077032 -0.0020000000949949026,-3.5329999923706055 -0.0020000000949949026,-3.5329999923706055 C-0.0020000000949949026,-3.5329999923706055 -5.304999828338623,-8.836000442504883 -5.304999828338623,-8.836000442504883 C-5.304999828338623,-8.836000442504883 -8.84000015258789,-5.302000045776367 -8.84000015258789,-5.302000045776367 C-8.84000015258789,-5.302000045776367 -3.5360000133514404,0 -3.5360000133514404,0 C-3.5360000133514404,0 -8.838000297546387,5.302000045776367 -8.838000297546387,5.302000045776367 C-8.838000297546387,5.302000045776367 -7.070000171661377,7.070000171661377 -7.070000171661377,7.070000171661377 C-7.070000171661377,7.070000171661377 -5.302000045776367,8.836999893188477 -5.302000045776367,8.836999893188477 C-5.302000045776367,8.836999893188477 -0.0020000000949949026,3.5360000133514404 -0.0020000000949949026,3.5360000133514404 C-0.0020000000949949026,3.5360000133514404 5.302999973297119,8.83899974822998 5.302999973297119,8.83899974822998 C5.302999973297119,8.83899974822998 8.836000442504883,5.304999828338623 8.836000442504883,5.304999828338623 C8.836000442504883,5.304999828338623 3.5339999198913574,0.0020000000949949026 3.5339999198913574,0.0020000000949949026 C3.5339999198913574,0.0020000000949949026 8.84000015258789,-5.302999973297119 8.84000015258789,-5.302999973297119 C8.84000015258789,-5.302999973297119 5.304999828338623,-8.83899974822998 5.304999828338623,-8.83899974822998 C5.304999828338623,-8.83899974822998 -0.0020000000949949026,-3.5329999923706055 -0.0020000000949949026,-3.5329999923706055z"></path></g></g><g transform="matrix(1,0,0,1,239.052001953125,277.05401611328125)" opacity="1" style="display: block;"><g opacity="1" transform="matrix(1,0,0,1,9.09000015258789,9.08899974822998)"><path fill="rgb(255,254,255)" fill-opacity="1" d=" M-0.003000000026077032,-3.5339999198913574 C-0.003000000026077032,-3.5339999198913574 3.5329999923706055,0.0010000000474974513 3.5329999923706055,0.0010000000474974513 C3.5329999923706055,0.0010000000474974513 0.003000000026077032,3.5320000648498535 0.003000000026077032,3.5320000648498535 C0.003000000026077032,3.5320000648498535 -3.5329999923706055,-0.003000000026077032 -3.5329999923706055,-0.003000000026077032 C-3.5329999923706055,-0.003000000026077032 -0.003000000026077032,-3.5339999198913574 -0.003000000026077032,-3.5339999198913574 C-0.003000000026077032,-3.5339999198913574 -5.306000232696533,-8.836999893188477 -5.306000232696533,-8.836999893188477 C-5.306000232696533,-8.836999893188477 -8.84000015258789,-5.302000045776367 -8.84000015258789,-5.302000045776367 C-8.84000015258789,-5.302000045776367 -3.5369999408721924,0 -3.5369999408721924,0 C-3.5369999408721924,0 -8.83899974822998,5.302999973297119 -8.83899974822998,5.302999973297119 C-8.83899974822998,5.302999973297119 -7.071000099182129,7.070000171661377 -7.071000099182129,7.070000171661377 C-7.071000099182129,7.070000171661377 -5.302999973297119,8.836999893188477 -5.302999973297119,8.836999893188477 C-5.302999973297119,8.836999893188477 -0.003000000026077032,3.5360000133514404 -0.003000000026077032,3.5360000133514404 C-0.003000000026077032,3.5360000133514404 5.302999973297119,8.83899974822998 5.302999973297119,8.83899974822998 C5.302999973297119,8.83899974822998 8.836000442504883,5.304999828338623 8.836000442504883,5.304999828338623 C8.836000442504883,5.304999828338623 3.5339999198913574,0.0010000000474974513 3.5339999198913574,0.0010000000474974513 C3.5339999198913574,0.0010000000474974513 8.84000015258789,-5.302999973297119 8.84000015258789,-5.302999973297119 C8.84000015258789,-5.302999973297119 5.304999828338623,-8.83899974822998 5.304999828338623,-8.83899974822998 C5.304999828338623,-8.83899974822998 -0.003000000026077032,-3.5339999198913574 -0.003000000026077032,-3.5339999198913574z"></path></g></g><g transform="matrix(1,0,0,1,275.052001953125,161.91200256347656)" opacity="1" style="display: block;"><g opacity="1" transform="matrix(1,0,0,1,9.09000015258789,9.08899974822998)"><path fill="rgb(255,254,255)" fill-opacity="1" d=" M-0.003000000026077032,-3.5339999198913574 C-0.003000000026077032,-3.5339999198913574 3.5320000648498535,0.0010000000474974513 3.5320000648498535,0.0010000000474974513 C3.5320000648498535,0.0010000000474974513 0.0020000000949949026,3.5329999923706055 0.0020000000949949026,3.5329999923706055 C0.0020000000949949026,3.5329999923706055 -3.5320000648498535,-0.003000000026077032 -3.5320000648498535,-0.003000000026077032 C-3.5320000648498535,-0.003000000026077032 -0.003000000026077032,-3.5339999198913574 -0.003000000026077032,-3.5339999198913574 C-0.003000000026077032,-3.5339999198913574 -5.306000232696533,-8.836000442504883 -5.306000232696533,-8.836000442504883 C-5.306000232696533,-8.836000442504883 -8.84000015258789,-5.302000045776367 -8.84000015258789,-5.302000045776367 C-8.84000015258789,-5.302000045776367 -3.5360000133514404,0 -3.5360000133514404,0 C-3.5360000133514404,0 -8.83899974822998,5.302000045776367 -8.83899974822998,5.302000045776367 C-8.83899974822998,5.302000045776367 -5.302999973297119,8.838000297546387 -5.302999973297119,8.838000297546387 C-5.302999973297119,8.838000297546387 -0.003000000026077032,3.5360000133514404 -0.003000000026077032,3.5360000133514404 C-0.003000000026077032,3.5360000133514404 5.302999973297119,8.83899974822998 5.302999973297119,8.83899974822998 C5.302999973297119,8.83899974822998 8.835000038146973,5.304999828338623 8.835000038146973,5.304999828338623 C8.835000038146973,5.304999828338623 3.5339999198913574,0.0020000000949949026 3.5339999198913574,0.0020000000949949026 C3.5339999198913574,0.0020000000949949026 8.84000015258789,-5.302999973297119 8.84000015258789,-5.302999973297119 C8.84000015258789,-5.302999973297119 5.303999900817871,-8.83899974822998 5.303999900817871,-8.83899974822998 C5.303999900817871,-8.83899974822998 -0.003000000026077032,-3.5339999198913574 -0.003000000026077032,-3.5339999198913574z"></path></g></g><g transform="matrix(1,0,0,1,48.051998138427734,161.91200256347656)" opacity="1" style="display: block;"><g opacity="1" transform="matrix(1,0,0,1,9.09000015258789,9.08899974822998)"><path fill="rgb(255,254,255)" fill-opacity="1" d=" M-0.0020000000949949026,-3.5339999198913574 C-0.0020000000949949026,-3.5339999198913574 3.5329999923706055,0.0010000000474974513 3.5329999923706055,0.0010000000474974513 C3.5329999923706055,0.0010000000474974513 0.003000000026077032,3.5329999923706055 0.003000000026077032,3.5329999923706055 C0.003000000026077032,3.5329999923706055 -3.5320000648498535,-0.003000000026077032 -3.5320000648498535,-0.003000000026077032 C-3.5320000648498535,-0.003000000026077032 -0.0020000000949949026,-3.5339999198913574 -0.0020000000949949026,-3.5339999198913574 C-0.0020000000949949026,-3.5339999198913574 -5.304999828338623,-8.836999893188477 -5.304999828338623,-8.836999893188477 C-5.304999828338623,-8.836999893188477 -8.84000015258789,-5.302000045776367 -8.84000015258789,-5.302000045776367 C-8.84000015258789,-5.302000045776367 -3.5360000133514404,0 -3.5360000133514404,0 C-3.5360000133514404,0 -8.838000297546387,5.302000045776367 -8.838000297546387,5.302000045776367 C-8.838000297546387,5.302000045776367 -7.071000099182129,7.070000171661377 -7.071000099182129,7.070000171661377 C-7.071000099182129,7.070000171661377 -5.302999973297119,8.838000297546387 -5.302999973297119,8.838000297546387 C-5.302999973297119,8.838000297546387 -0.0020000000949949026,3.5360000133514404 -0.0020000000949949026,3.5360000133514404 C-0.0020000000949949026,3.5360000133514404 5.302000045776367,8.83899974822998 5.302000045776367,8.83899974822998 C5.302000045776367,8.83899974822998 8.836000442504883,5.304999828338623 8.836000442504883,5.304999828338623 C8.836000442504883,5.304999828338623 3.5339999198913574,0.0020000000949949026 3.5339999198913574,0.0020000000949949026 C3.5339999198913574,0.0020000000949949026 8.84000015258789,-5.302999973297119 8.84000015258789,-5.302999973297119 C8.84000015258789,-5.302999973297119 5.303999900817871,-8.83899974822998 5.303999900817871,-8.83899974822998 C5.303999900817871,-8.83899974822998 -0.0020000000949949026,-3.5339999198913574 -0.0020000000949949026,-3.5339999198913574z"></path></g></g><g transform="matrix(1,0,0,1,9.75,163.75)" opacity="1" style="display: block;"><g opacity="1" transform="matrix(1,0,0,1,7.75,7.75)"><path fill="rgb(0,244,201)" fill-opacity="1" d=" M-7.5,-7.5 C-7.5,-7.5 7.5,-7.5 7.5,-7.5 C7.5,-7.5 7.5,7.5 7.5,7.5 C7.5,7.5 -7.5,7.5 -7.5,7.5 C-7.5,7.5 -7.5,-7.5 -7.5,-7.5z"></path></g></g><g transform="matrix(1,0,0,1,9.052000045776367,125.05300903320312)" opacity="1" style="display: block;"><g opacity="1" transform="matrix(1,0,0,1,9.09000015258789,9.09000015258789)"><path fill="rgb(255,254,255)" fill-opacity="1" d=" M-0.003000000026077032,-3.5339999198913574 C-0.003000000026077032,-3.5339999198913574 3.5329999923706055,0.0020000000949949026 3.5329999923706055,0.0020000000949949026 C3.5329999923706055,0.0020000000949949026 0.003000000026077032,3.5320000648498535 0.003000000026077032,3.5320000648498535 C0.003000000026077032,3.5320000648498535 -3.5329999923706055,-0.003000000026077032 -3.5329999923706055,-0.003000000026077032 C-3.5329999923706055,-0.003000000026077032 -0.003000000026077032,-3.5339999198913574 -0.003000000026077032,-3.5339999198913574 C-0.003000000026077032,-3.5339999198913574 -5.306000232696533,-8.836999893188477 -5.306000232696533,-8.836999893188477 C-5.306000232696533,-8.836999893188477 -8.84000015258789,-5.302999973297119 -8.84000015258789,-5.302999973297119 C-8.84000015258789,-5.302999973297119 -3.5369999408721924,0.0010000000474974513 -3.5369999408721924,0.0010000000474974513 C-3.5369999408721924,0.0010000000474974513 -8.83899974822998,5.302999973297119 -8.83899974822998,5.302999973297119 C-8.83899974822998,5.302999973297119 -6.060999870300293,8.081000328063965 -6.060999870300293,8.081000328063965 C-6.060999870300293,8.081000328063965 -5.302999973297119,8.838000297546387 -5.302999973297119,8.838000297546387 C-5.302999973297119,8.838000297546387 -0.003000000026077032,3.5360000133514404 -0.003000000026077032,3.5360000133514404 C-0.003000000026077032,3.5360000133514404 5.302999973297119,8.84000015258789 5.302999973297119,8.84000015258789 C5.302999973297119,8.84000015258789 8.836000442504883,5.304999828338623 8.836000442504883,5.304999828338623 C8.836000442504883,5.304999828338623 3.5339999198913574,0.0020000000949949026 3.5339999198913574,0.0020000000949949026 C3.5339999198913574,0.0020000000949949026 8.84000015258789,-5.302999973297119 8.84000015258789,-5.302999973297119 C8.84000015258789,-5.302999973297119 5.304999828338623,-8.84000015258789 5.304999828338623,-8.84000015258789 C5.304999828338623,-8.84000015258789 -0.003000000026077032,-3.5339999198913574 -0.003000000026077032,-3.5339999198913574z"></path></g></g><g transform="matrix(1,0,0,1,9.052000045776367,201.0540008544922)" opacity="1" style="display: block;"><g opacity="1" transform="matrix(1,0,0,1,9.09000015258789,9.08899974822998)"><path fill="rgb(255,254,255)" fill-opacity="1" d=" M-0.003000000026077032,-3.5329999923706055 C-0.003000000026077032,-3.5329999923706055 3.5329999923706055,0.0010000000474974513 3.5329999923706055,0.0010000000474974513 C3.5329999923706055,0.0010000000474974513 0.003000000026077032,3.5309998989105225 0.003000000026077032,3.5309998989105225 C0.003000000026077032,3.5309998989105225 -3.5329999923706055,-0.003000000026077032 -3.5329999923706055,-0.003000000026077032 C-3.5329999923706055,-0.003000000026077032 -0.003000000026077032,-3.5329999923706055 -0.003000000026077032,-3.5329999923706055 C-0.003000000026077032,-3.5329999923706055 -5.306000232696533,-8.836000442504883 -5.306000232696533,-8.836000442504883 C-5.306000232696533,-8.836000442504883 -8.84000015258789,-5.302000045776367 -8.84000015258789,-5.302000045776367 C-8.84000015258789,-5.302000045776367 -3.5369999408721924,0 -3.5369999408721924,0 C-3.5369999408721924,0 -8.83899974822998,5.302999973297119 -8.83899974822998,5.302999973297119 C-8.83899974822998,5.302999973297119 -7.071000099182129,7.070000171661377 -7.071000099182129,7.070000171661377 C-7.071000099182129,7.070000171661377 -5.302999973297119,8.836999893188477 -5.302999973297119,8.836999893188477 C-5.302999973297119,8.836999893188477 -0.003000000026077032,3.5369999408721924 -0.003000000026077032,3.5369999408721924 C-0.003000000026077032,3.5369999408721924 5.302999973297119,8.83899974822998 5.302999973297119,8.83899974822998 C5.302999973297119,8.83899974822998 8.836000442504883,5.304999828338623 8.836000442504883,5.304999828338623 C8.836000442504883,5.304999828338623 3.5339999198913574,0.0010000000474974513 3.5339999198913574,0.0010000000474974513 C3.5339999198913574,0.0010000000474974513 8.84000015258789,-5.302999973297119 8.84000015258789,-5.302999973297119 C8.84000015258789,-5.302999973297119 5.304999828338623,-8.83899974822998 5.304999828338623,-8.83899974822998 C5.304999828338623,-8.83899974822998 -0.003000000026077032,-3.5329999923706055 -0.003000000026077032,-3.5329999923706055z"></path></g></g><g transform="matrix(1,0,0,1,9.75,87.75)" opacity="1" style="display: block;"><g opacity="1" transform="matrix(1,0,0,1,7.75,7.75)"><path fill="rgb(0,244,201)" fill-opacity="1" d=" M-7.5,-7.5 C-7.5,-7.5 7.5,-7.5 7.5,-7.5 C7.5,-7.5 7.5,7.5 7.5,7.5 C7.5,7.5 -7.5,7.5 -7.5,7.5 C-7.5,7.5 -7.5,-7.5 -7.5,-7.5z"></path></g></g><g transform="matrix(1,0,0,1,9.75,239.75)" opacity="1" style="display: block;"><g opacity="1" transform="matrix(1,0,0,1,7.75,7.75)"><path fill="rgb(0,244,201)" fill-opacity="1" d=" M-7.5,-7.5 C-7.5,-7.5 7.5,-7.5 7.5,-7.5 C7.5,-7.5 7.5,7.5 7.5,7.5 C7.5,7.5 -7.5,7.5 -7.5,7.5 C-7.5,7.5 -7.5,-7.5 -7.5,-7.5z"></path></g></g><g transform="matrix(1,0,0,1,315.75,163.75)" opacity="1" style="display: block;"><g opacity="1" transform="matrix(1,0,0,1,7.75,7.75)"><path fill="rgb(0,244,201)" fill-opacity="1" d=" M-7.5,-7.5 C-7.5,-7.5 7.5,-7.5 7.5,-7.5 C7.5,-7.5 7.5,7.5 7.5,7.5 C7.5,7.5 -7.5,7.5 -7.5,7.5 C-7.5,7.5 -7.5,-7.5 -7.5,-7.5z"></path></g></g><g transform="matrix(1,0,0,1,315.052001953125,125.05300903320312)" opacity="1" style="display: block;"><g opacity="1" transform="matrix(1,0,0,1,9.09000015258789,9.09000015258789)"><path fill="rgb(255,254,255)" fill-opacity="1" d=" M-0.003000000026077032,-3.5339999198913574 C-0.003000000026077032,-3.5339999198913574 3.5329999923706055,0.0020000000949949026 3.5329999923706055,0.0020000000949949026 C3.5329999923706055,0.0020000000949949026 0.003000000026077032,3.5320000648498535 0.003000000026077032,3.5320000648498535 C0.003000000026077032,3.5320000648498535 -3.5329999923706055,-0.003000000026077032 -3.5329999923706055,-0.003000000026077032 C-3.5329999923706055,-0.003000000026077032 -0.003000000026077032,-3.5339999198913574 -0.003000000026077032,-3.5339999198913574 C-0.003000000026077032,-3.5339999198913574 -5.306000232696533,-8.836999893188477 -5.306000232696533,-8.836999893188477 C-5.306000232696533,-8.836999893188477 -8.84000015258789,-5.302999973297119 -8.84000015258789,-5.302999973297119 C-8.84000015258789,-5.302999973297119 -3.5369999408721924,0.0010000000474974513 -3.5369999408721924,0.0010000000474974513 C-3.5369999408721924,0.0010000000474974513 -8.83899974822998,5.302999973297119 -8.83899974822998,5.302999973297119 C-8.83899974822998,5.302999973297119 -6.060999870300293,8.081000328063965 -6.060999870300293,8.081000328063965 C-6.060999870300293,8.081000328063965 -5.302999973297119,8.838000297546387 -5.302999973297119,8.838000297546387 C-5.302999973297119,8.838000297546387 -0.003000000026077032,3.5360000133514404 -0.003000000026077032,3.5360000133514404 C-0.003000000026077032,3.5360000133514404 5.302999973297119,8.84000015258789 5.302999973297119,8.84000015258789 C5.302999973297119,8.84000015258789 8.836000442504883,5.304999828338623 8.836000442504883,5.304999828338623 C8.836000442504883,5.304999828338623 3.5339999198913574,0.0020000000949949026 3.5339999198913574,0.0020000000949949026 C3.5339999198913574,0.0020000000949949026 8.84000015258789,-5.302999973297119 8.84000015258789,-5.302999973297119 C8.84000015258789,-5.302999973297119 5.304999828338623,-8.84000015258789 5.304999828338623,-8.84000015258789 C5.304999828338623,-8.84000015258789 -0.003000000026077032,-3.5339999198913574 -0.003000000026077032,-3.5339999198913574z"></path></g></g><g transform="matrix(1,0,0,1,315.052001953125,201.0540008544922)" opacity="1" style="display: block;"><g opacity="1" transform="matrix(1,0,0,1,9.09000015258789,9.08899974822998)"><path fill="rgb(255,254,255)" fill-opacity="1" d=" M-0.003000000026077032,-3.5329999923706055 C-0.003000000026077032,-3.5329999923706055 3.5329999923706055,0.0010000000474974513 3.5329999923706055,0.0010000000474974513 C3.5329999923706055,0.0010000000474974513 0.003000000026077032,3.5309998989105225 0.003000000026077032,3.5309998989105225 C0.003000000026077032,3.5309998989105225 -3.5329999923706055,-0.003000000026077032 -3.5329999923706055,-0.003000000026077032 C-3.5329999923706055,-0.003000000026077032 -0.003000000026077032,-3.5329999923706055 -0.003000000026077032,-3.5329999923706055 C-0.003000000026077032,-3.5329999923706055 -5.306000232696533,-8.836000442504883 -5.306000232696533,-8.836000442504883 C-5.306000232696533,-8.836000442504883 -8.84000015258789,-5.302000045776367 -8.84000015258789,-5.302000045776367 C-8.84000015258789,-5.302000045776367 -3.5369999408721924,0 -3.5369999408721924,0 C-3.5369999408721924,0 -8.83899974822998,5.302999973297119 -8.83899974822998,5.302999973297119 C-8.83899974822998,5.302999973297119 -7.071000099182129,7.070000171661377 -7.071000099182129,7.070000171661377 C-7.071000099182129,7.070000171661377 -5.302999973297119,8.836999893188477 -5.302999973297119,8.836999893188477 C-5.302999973297119,8.836999893188477 -0.003000000026077032,3.5369999408721924 -0.003000000026077032,3.5369999408721924 C-0.003000000026077032,3.5369999408721924 5.302999973297119,8.83899974822998 5.302999973297119,8.83899974822998 C5.302999973297119,8.83899974822998 8.836000442504883,5.304999828338623 8.836000442504883,5.304999828338623 C8.836000442504883,5.304999828338623 3.5339999198913574,0.0010000000474974513 3.5339999198913574,0.0010000000474974513 C3.5339999198913574,0.0010000000474974513 8.84000015258789,-5.302999973297119 8.84000015258789,-5.302999973297119 C8.84000015258789,-5.302999973297119 5.304999828338623,-8.83899974822998 5.304999828338623,-8.83899974822998 C5.304999828338623,-8.83899974822998 -0.003000000026077032,-3.5329999923706055 -0.003000000026077032,-3.5329999923706055z"></path></g></g><g transform="matrix(1,0,0,1,315.75,87.75)" opacity="1" style="display: block;"><g opacity="1" transform="matrix(1,0,0,1,7.75,7.75)"><path fill="rgb(0,244,201)" fill-opacity="1" d=" M-7.5,-7.5 C-7.5,-7.5 7.5,-7.5 7.5,-7.5 C7.5,-7.5 7.5,7.5 7.5,7.5 C7.5,7.5 -7.5,7.5 -7.5,7.5 C-7.5,7.5 -7.5,-7.5 -7.5,-7.5z"></path></g></g><g transform="matrix(1,0,0,1,315.75,239.75)" opacity="1" style="display: block;"><g opacity="1" transform="matrix(1,0,0,1,7.75,7.75)"><path fill="rgb(0,244,201)" fill-opacity="1" d=" M-7.5,-7.5 C-7.5,-7.5 7.5,-7.5 7.5,-7.5 C7.5,-7.5 7.5,7.5 7.5,7.5 C7.5,7.5 -7.5,7.5 -7.5,7.5 C-7.5,7.5 -7.5,-7.5 -7.5,-7.5z"></path></g></g></g></svg>