<svg xmlns="http://www.w3.org/2000/svg" xmlns:xlink="http://www.w3.org/1999/xlink" viewBox="0 0 1000 1000" width="1000" height="1000" preserveAspectRatio="xMidYMid meet" style="width: 100%; height: 100%; transform: translate3d(0px, 0px, 0px); content-visibility: visible;"><defs><clipPath id="__lottie_element_23"><rect width="1000" height="1000" x="0" y="0"></rect></clipPath></defs><g clip-path="url(#__lottie_element_23)"><g transform="matrix(1,0,0,1,-0.125,625)" opacity="1" style="display: block;"><g opacity="1" transform="matrix(1,0,0,1,187.5,187.5)"><path fill="rgb(0,0,0)" fill-opacity="1" d=" M-187.25,-187.25 C-187.25,-187.25 -187.25,-186.75 -187.25,-186.75 C-187.25,-186.75 186.74899291992188,187.25 186.74899291992188,187.25 C186.74899291992188,187.25 187.25,187.25 187.25,187.25 C187.25,187.25 187.25,-187.25 187.25,-187.25 C187.25,-187.25 -187.25,-187.25 -187.25,-187.25z"></path></g></g><g transform="matrix(1.999994158744812,0,0,1.999994158744812,-0.372802734375,250.25)" opacity="1" style="display: block;"><g opacity="1" transform="matrix(1,0,0,1,187.5,187.5)"><path fill="rgb(0,0,0)" fill-opacity="1" d=" M-187.25,-187.25 C-187.25,-187.25 -187.25,-186.75 -187.25,-186.75 C-187.25,-186.75 186.74899291992188,187.25 186.74899291992188,187.25 C186.74899291992188,187.25 187.25,187.25 187.25,187.25 C187.25,187.25 187.25,-187.25 187.25,-187.25 C187.25,-187.25 -187.25,-187.25 -187.25,-187.25z"></path></g></g><g transform="matrix(0.6700019240379333,0,0,0.6700019240379333,497.2073059082031,0.33249950408935547)" opacity="1" style="display: block;"><g opacity="1" transform="matrix(1,0,0,1,375,375)"><path fill="rgb(0,0,0)" fill-opacity="1" d=" M-374.75,-374.75 C-374.75,-374.75 -374.75,-374.2510070800781 -374.75,-374.2510070800781 C-374.75,-374.2510070800781 374.25,374.7489929199219 374.25,374.7489929199219 C374.25,374.7489929199219 374.75,374.7489929199219 374.75,374.7489929199219 C374.75,374.7489929199219 374.75,-374.75 374.75,-374.75 C374.75,-374.75 -374.75,-374.75 -374.75,-374.75z"></path></g></g><g transform="matrix(0.000003296069962743786,0,0,0.000003296069962743786,999.4983520507812,0.5009991526603699)" opacity="1" style="display: block;"><g opacity="1" transform="matrix(1,0,0,1,250,250)"><path fill="rgb(0,0,0)" fill-opacity="1" d=" M-249.75,-249.75 C-249.75,-249.75 249.75,249.75 249.75,249.75 C249.75,249.75 249.75,-249.75 249.75,-249.75 C249.75,-249.75 -249.75,-249.75 -249.75,-249.75z"></path></g></g></g></svg>