<svg xmlns="http://www.w3.org/2000/svg" xmlns:xlink="http://www.w3.org/1999/xlink" viewBox="0 0 343 343" width="343" height="343" preserveAspectRatio="xMidYMid meet" style="width: 100%; height: 100%; transform: translate3d(0px, 0px, 0px); content-visibility: visible;"><defs><clipPath id="__lottie_element_111"><rect width="343" height="343" x="0" y="0"></rect></clipPath></defs><g clip-path="url(#__lottie_element_111)"><g transform="matrix(1,0,0,1,15.359001159667969,46.750999450683594)" opacity="1" style="display: block;"><g opacity="1" transform="matrix(1,0,0,1,5.552999973297119,10.857000350952148)"><path fill="rgb(0,244,201)" fill-opacity="1" d=" M-5.302999973297119,10.605999946594238 C-5.302999973297119,10.605999946594238 -5.302999973297119,-10.605999946594238 -5.302999973297119,-10.605999946594238 C-5.302999973297119,-10.605999946594238 5.302999973297119,0.0010000000474974513 5.302999973297119,0.0010000000474974513 C5.302999973297119,0.0010000000474974513 -5.302999973297119,10.605999946594238 -5.302999973297119,10.605999946594238z"></path></g></g><g transform="matrix(1,0,0,1,49.75,49.75)" opacity="1" style="display: block;"><g opacity="1" transform="matrix(1,0,0,1,7.75,7.75)"><path fill="rgb(255,254,255)" fill-opacity="1" d=" M0,-7.5 C4.142000198364258,-7.5 7.5,-4.142000198364258 7.5,0 C7.5,4.142000198364258 4.142000198364258,7.5 0,7.5 C-4.142000198364258,7.5 -7.5,4.142000198364258 -7.5,0 C-7.5,-4.142000198364258 -4.142000198364258,-7.5 0,-7.5z"></path></g></g><g transform="matrix(1,0,0,1,92.35900115966797,46.750999450683594)" opacity="1" style="display: block;"><g opacity="1" transform="matrix(1,0,0,1,5.552999973297119,10.857000350952148)"><path fill="rgb(0,244,201)" fill-opacity="1" d=" M-5.302999973297119,10.605999946594238 C-5.302999973297119,10.605999946594238 -5.302999973297119,-10.605999946594238 -5.302999973297119,-10.605999946594238 C-5.302999973297119,-10.605999946594238 5.302999973297119,0.0010000000474974513 5.302999973297119,0.0010000000474974513 C5.302999973297119,0.0010000000474974513 -5.302999973297119,10.605999946594238 -5.302999973297119,10.605999946594238z"></path></g></g><g transform="matrix(1,0,0,1,125.75,49.75)" opacity="1" style="display: block;"><g opacity="1" transform="matrix(1,0,0,1,7.75,7.75)"><path fill="rgb(255,254,255)" fill-opacity="1" d=" M0,-7.5 C4.142000198364258,-7.5 7.5,-4.142000198364258 7.5,0 C7.5,4.142000198364258 4.142000198364258,7.5 0,7.5 C-4.142000198364258,7.5 -7.5,4.142000198364258 -7.5,0 C-7.5,-4.142000198364258 -4.142000198364258,-7.5 0,-7.5z"></path></g></g><g transform="matrix(1,0,0,1,168.3590087890625,46.750999450683594)" opacity="1" style="display: block;"><g opacity="1" transform="matrix(1,0,0,1,5.552999973297119,10.857000350952148)"><path fill="rgb(0,244,201)" fill-opacity="1" d=" M-5.302999973297119,10.605999946594238 C-5.302999973297119,10.605999946594238 -5.302999973297119,-10.605999946594238 -5.302999973297119,-10.605999946594238 C-5.302999973297119,-10.605999946594238 5.302999973297119,0.0010000000474974513 5.302999973297119,0.0010000000474974513 C5.302999973297119,0.0010000000474974513 -5.302999973297119,10.605999946594238 -5.302999973297119,10.605999946594238z"></path></g></g><g transform="matrix(0.9992149472236633,0,0,0.9992149472236633,202.75608825683594,49.75608444213867)" opacity="1" style="display: block;"><g opacity="1" transform="matrix(1,0,0,1,7.75,7.75)"><path fill="rgb(255,254,255)" fill-opacity="1" d=" M0,-7.5 C4.14300012588501,-7.5 7.5,-4.142000198364258 7.5,0 C7.5,4.142000198364258 4.14300012588501,7.5 0,7.5 C-4.14300012588501,7.5 -7.5,4.142000198364258 -7.5,0 C-7.5,-4.142000198364258 -4.14300012588501,-7.5 0,-7.5z"></path></g></g><g transform="matrix(1,0,0,1,52.3589973449707,84.5009994506836)" opacity="1" style="display: block;"><g opacity="1" transform="matrix(1,0,0,1,5.552999973297119,10.857000350952148)"><path fill="rgb(0,244,201)" fill-opacity="1" d=" M-5.302999973297119,10.605999946594238 C-5.302999973297119,10.605999946594238 -5.302999973297119,-10.605999946594238 -5.302999973297119,-10.605999946594238 C-5.302999973297119,-10.605999946594238 5.302999973297119,0.0010000000474974513 5.302999973297119,0.0010000000474974513 C5.302999973297119,0.0010000000474974513 -5.302999973297119,10.605999946594238 -5.302999973297119,10.605999946594238z"></path></g></g><g transform="matrix(1,0,0,1,86.75,87.5)" opacity="1" style="display: block;"><g opacity="1" transform="matrix(1,0,0,1,7.75,7.75)"><path fill="rgb(255,254,255)" fill-opacity="1" d=" M0,-7.5 C4.142000198364258,-7.5 7.5,-4.142000198364258 7.5,0 C7.5,4.142000198364258 4.142000198364258,7.5 0,7.5 C-4.142000198364258,7.5 -7.5,4.142000198364258 -7.5,0 C-7.5,-4.142000198364258 -4.142000198364258,-7.5 0,-7.5z"></path></g></g><g transform="matrix(1,0,0,1,129.3590087890625,84.5009994506836)" opacity="1" style="display: block;"><g opacity="1" transform="matrix(1,0,0,1,5.552999973297119,10.857000350952148)"><path fill="rgb(0,244,201)" fill-opacity="1" d=" M-5.302999973297119,10.605999946594238 C-5.302999973297119,10.605999946594238 -5.302999973297119,-10.605999946594238 -5.302999973297119,-10.605999946594238 C-5.302999973297119,-10.605999946594238 5.302999973297119,0.0010000000474974513 5.302999973297119,0.0010000000474974513 C5.302999973297119,0.0010000000474974513 -5.302999973297119,10.605999946594238 -5.302999973297119,10.605999946594238z"></path></g></g><g transform="matrix(1,0,0,1,162.75,87.5)" opacity="1" style="display: block;"><g opacity="1" transform="matrix(1,0,0,1,7.75,7.75)"><path fill="rgb(255,254,255)" fill-opacity="1" d=" M0,-7.5 C4.142000198364258,-7.5 7.5,-4.142000198364258 7.5,0 C7.5,4.142000198364258 4.142000198364258,7.5 0,7.5 C-4.142000198364258,7.5 -7.5,4.142000198364258 -7.5,0 C-7.5,-4.142000198364258 -4.142000198364258,-7.5 0,-7.5z"></path></g></g><g transform="matrix(1,0,0,1,205.3590087890625,84.5009994506836)" opacity="1" style="display: block;"><g opacity="1" transform="matrix(1,0,0,1,5.552999973297119,10.857000350952148)"><path fill="rgb(0,244,201)" fill-opacity="1" d=" M-5.302999973297119,10.605999946594238 C-5.302999973297119,10.605999946594238 -5.302999973297119,-10.605999946594238 -5.302999973297119,-10.605999946594238 C-5.302999973297119,-10.605999946594238 5.302999973297119,0.0010000000474974513 5.302999973297119,0.0010000000474974513 C5.302999973297119,0.0010000000474974513 -5.302999973297119,10.605999946594238 -5.302999973297119,10.605999946594238z"></path></g></g><g transform="matrix(0.4756457507610321,0,0,0.4756457507610321,243.81375122070312,91.5637435913086)" opacity="1" style="display: block;"><g opacity="1" transform="matrix(1,0,0,1,7.75,7.75)"><path fill="rgb(255,254,255)" fill-opacity="1" d=" M0,-7.5 C4.14300012588501,-7.5 7.5,-4.142000198364258 7.5,0 C7.5,4.142000198364258 4.14300012588501,7.5 0,7.5 C-4.14300012588501,7.5 -7.5,4.142000198364258 -7.5,0 C-7.5,-4.142000198364258 -4.14300012588501,-7.5 0,-7.5z"></path></g></g><g transform="matrix(1,0,0,1,90.85900115966797,123.00099182128906)" opacity="1" style="display: block;"><g opacity="1" transform="matrix(1,0,0,1,5.552999973297119,10.857000350952148)"><path fill="rgb(0,244,201)" fill-opacity="1" d=" M-5.302999973297119,10.605999946594238 C-5.302999973297119,10.605999946594238 -5.302999973297119,-10.605999946594238 -5.302999973297119,-10.605999946594238 C-5.302999973297119,-10.605999946594238 5.302999973297119,0.0010000000474974513 5.302999973297119,0.0010000000474974513 C5.302999973297119,0.0010000000474974513 -5.302999973297119,10.605999946594238 -5.302999973297119,10.605999946594238z"></path></g></g><g transform="matrix(1,0,0,1,125.25,126)" opacity="1" style="display: block;"><g opacity="1" transform="matrix(1,0,0,1,7.75,7.75)"><path fill="rgb(255,254,255)" fill-opacity="1" d=" M0,-7.5 C4.142000198364258,-7.5 7.5,-4.142000198364258 7.5,0 C7.5,4.142000198364258 4.142000198364258,7.5 0,7.5 C-4.142000198364258,7.5 -7.5,4.142000198364258 -7.5,0 C-7.5,-4.142000198364258 -4.142000198364258,-7.5 0,-7.5z"></path></g></g><g transform="matrix(1,0,0,1,167.8590087890625,123.00099182128906)" opacity="1" style="display: block;"><g opacity="1" transform="matrix(1,0,0,1,5.552999973297119,10.857000350952148)"><path fill="rgb(0,244,201)" fill-opacity="1" d=" M-5.302999973297119,10.605999946594238 C-5.302999973297119,10.605999946594238 -5.302999973297119,-10.605999946594238 -5.302999973297119,-10.605999946594238 C-5.302999973297119,-10.605999946594238 5.302999973297119,0.0010000000474974513 5.302999973297119,0.0010000000474974513 C5.302999973297119,0.0010000000474974513 -5.302999973297119,10.605999946594238 -5.302999973297119,10.605999946594238z"></path></g></g><g transform="matrix(1,0,0,1,201.25,126)" opacity="1" style="display: block;"><g opacity="1" transform="matrix(1,0,0,1,7.75,7.75)"><path fill="rgb(255,254,255)" fill-opacity="1" d=" M0,-7.5 C4.142000198364258,-7.5 7.5,-4.142000198364258 7.5,0 C7.5,4.142000198364258 4.142000198364258,7.5 0,7.5 C-4.142000198364258,7.5 -7.5,4.142000198364258 -7.5,0 C-7.5,-4.142000198364258 -4.142000198364258,-7.5 0,-7.5z"></path></g></g><g transform="matrix(1,0,0,1,243.8590087890625,123.00099182128906)" opacity="1" style="display: block;"><g opacity="1" transform="matrix(1,0,0,1,5.552999973297119,10.857000350952148)"><path fill="rgb(0,244,201)" fill-opacity="1" d=" M-5.302999973297119,10.605999946594238 C-5.302999973297119,10.605999946594238 -5.302999973297119,-10.605999946594238 -5.302999973297119,-10.605999946594238 C-5.302999973297119,-10.605999946594238 5.302999973297119,0.0010000000474974513 5.302999973297119,0.0010000000474974513 C5.302999973297119,0.0010000000474974513 -5.302999973297119,10.605999946594238 -5.302999973297119,10.605999946594238z"></path></g></g><g transform="matrix(0,0,0,0,286,133.75)" opacity="1" style="display: block;"><g opacity="1" transform="matrix(1,0,0,1,7.75,7.75)"><path fill="rgb(255,254,255)" fill-opacity="1" d=" M0,-7.5 C4.14300012588501,-7.5 7.5,-4.142000198364258 7.5,0 C7.5,4.142000198364258 4.14300012588501,7.5 0,7.5 C-4.14300012588501,7.5 -7.5,4.142000198364258 -7.5,0 C-7.5,-4.142000198364258 -4.14300012588501,-7.5 0,-7.5z"></path></g></g><g transform="matrix(1,0,0,1,128.8590087890625,160.50099182128906)" opacity="1" style="display: block;"><g opacity="1" transform="matrix(1,0,0,1,5.552999973297119,10.857000350952148)"><path fill="rgb(0,244,201)" fill-opacity="1" d=" M-5.302999973297119,10.605999946594238 C-5.302999973297119,10.605999946594238 -5.302999973297119,-10.605999946594238 -5.302999973297119,-10.605999946594238 C-5.302999973297119,-10.605999946594238 5.302999973297119,0.0010000000474974513 5.302999973297119,0.0010000000474974513 C5.302999973297119,0.0010000000474974513 -5.302999973297119,10.605999946594238 -5.302999973297119,10.605999946594238z"></path></g></g><g transform="matrix(1,0,0,1,163.25,163.5)" opacity="1" style="display: block;"><g opacity="1" transform="matrix(1,0,0,1,7.75,7.75)"><path fill="rgb(255,254,255)" fill-opacity="1" d=" M0,-7.5 C4.142000198364258,-7.5 7.5,-4.142000198364258 7.5,0 C7.5,4.142000198364258 4.142000198364258,7.5 0,7.5 C-4.142000198364258,7.5 -7.5,4.142000198364258 -7.5,0 C-7.5,-4.142000198364258 -4.142000198364258,-7.5 0,-7.5z"></path></g></g><g transform="matrix(1,0,0,1,205.8590087890625,160.50099182128906)" opacity="1" style="display: block;"><g opacity="1" transform="matrix(1,0,0,1,5.552999973297119,10.857000350952148)"><path fill="rgb(0,244,201)" fill-opacity="1" d=" M-5.302999973297119,10.605999946594238 C-5.302999973297119,10.605999946594238 -5.302999973297119,-10.605999946594238 -5.302999973297119,-10.605999946594238 C-5.302999973297119,-10.605999946594238 5.302999973297119,0.0010000000474974513 5.302999973297119,0.0010000000474974513 C5.302999973297119,0.0010000000474974513 -5.302999973297119,10.605999946594238 -5.302999973297119,10.605999946594238z"></path></g></g><g transform="matrix(1,0,0,1,239.25,163.5)" opacity="1" style="display: block;"><g opacity="1" transform="matrix(1,0,0,1,7.75,7.75)"><path fill="rgb(255,254,255)" fill-opacity="1" d=" M0,-7.5 C4.142000198364258,-7.5 7.5,-4.142000198364258 7.5,0 C7.5,4.142000198364258 4.142000198364258,7.5 0,7.5 C-4.142000198364258,7.5 -7.5,4.142000198364258 -7.5,0 C-7.5,-4.142000198364258 -4.142000198364258,-7.5 0,-7.5z"></path></g></g><g transform="matrix(1,0,0,1,281.8589782714844,160.50099182128906)" opacity="1" style="display: block;"><g opacity="1" transform="matrix(1,0,0,1,5.552999973297119,10.857000350952148)"><path fill="rgb(0,244,201)" fill-opacity="1" d=" M-5.302999973297119,10.605999946594238 C-5.302999973297119,10.605999946594238 -5.302999973297119,-10.605999946594238 -5.302999973297119,-10.605999946594238 C-5.302999973297119,-10.605999946594238 5.302999973297119,0.0010000000474974513 5.302999973297119,0.0010000000474974513 C5.302999973297119,0.0010000000474974513 -5.302999973297119,10.605999946594238 -5.302999973297119,10.605999946594238z"></path></g></g><g transform="matrix(0,0,0,0,324,171.25)" opacity="1" style="display: block;"><g opacity="1" transform="matrix(1,0,0,1,7.75,7.75)"><path fill="rgb(255,254,255)" fill-opacity="1" d=" M0,-7.5 C4.14300012588501,-7.5 7.5,-4.142000198364258 7.5,0 C7.5,4.142000198364258 4.14300012588501,7.5 0,7.5 C-4.14300012588501,7.5 -7.5,4.142000198364258 -7.5,0 C-7.5,-4.142000198364258 -4.14300012588501,-7.5 0,-7.5z"></path></g></g><g transform="matrix(1,0,0,1,90.35900115966797,199.00099182128906)" opacity="1" style="display: block;"><g opacity="1" transform="matrix(1,0,0,1,5.552999973297119,10.857000350952148)"><path fill="rgb(0,244,201)" fill-opacity="1" d=" M-5.302999973297119,10.605999946594238 C-5.302999973297119,10.605999946594238 -5.302999973297119,-10.605999946594238 -5.302999973297119,-10.605999946594238 C-5.302999973297119,-10.605999946594238 5.302999973297119,0.0010000000474974513 5.302999973297119,0.0010000000474974513 C5.302999973297119,0.0010000000474974513 -5.302999973297119,10.605999946594238 -5.302999973297119,10.605999946594238z"></path></g></g><g transform="matrix(1,0,0,1,124.75,202)" opacity="1" style="display: block;"><g opacity="1" transform="matrix(1,0,0,1,7.75,7.75)"><path fill="rgb(255,254,255)" fill-opacity="1" d=" M0,-7.5 C4.142000198364258,-7.5 7.5,-4.142000198364258 7.5,0 C7.5,4.142000198364258 4.142000198364258,7.5 0,7.5 C-4.142000198364258,7.5 -7.5,4.142000198364258 -7.5,0 C-7.5,-4.142000198364258 -4.142000198364258,-7.5 0,-7.5z"></path></g></g><g transform="matrix(1,0,0,1,167.3590087890625,199.00099182128906)" opacity="1" style="display: block;"><g opacity="1" transform="matrix(1,0,0,1,5.552999973297119,10.857000350952148)"><path fill="rgb(0,244,201)" fill-opacity="1" d=" M-5.302999973297119,10.605999946594238 C-5.302999973297119,10.605999946594238 -5.302999973297119,-10.605999946594238 -5.302999973297119,-10.605999946594238 C-5.302999973297119,-10.605999946594238 5.302999973297119,0.0010000000474974513 5.302999973297119,0.0010000000474974513 C5.302999973297119,0.0010000000474974513 -5.302999973297119,10.605999946594238 -5.302999973297119,10.605999946594238z"></path></g></g><g transform="matrix(1,0,0,1,200.75,202)" opacity="1" style="display: block;"><g opacity="1" transform="matrix(1,0,0,1,7.75,7.75)"><path fill="rgb(255,254,255)" fill-opacity="1" d=" M0,-7.5 C4.142000198364258,-7.5 7.5,-4.142000198364258 7.5,0 C7.5,4.142000198364258 4.142000198364258,7.5 0,7.5 C-4.142000198364258,7.5 -7.5,4.142000198364258 -7.5,0 C-7.5,-4.142000198364258 -4.142000198364258,-7.5 0,-7.5z"></path></g></g><g transform="matrix(1,0,0,1,243.3590087890625,199.00099182128906)" opacity="1" style="display: block;"><g opacity="1" transform="matrix(1,0,0,1,5.552999973297119,10.857000350952148)"><path fill="rgb(0,244,201)" fill-opacity="1" d=" M-5.302999973297119,10.605999946594238 C-5.302999973297119,10.605999946594238 -5.302999973297119,-10.605999946594238 -5.302999973297119,-10.605999946594238 C-5.302999973297119,-10.605999946594238 5.302999973297119,0.0010000000474974513 5.302999973297119,0.0010000000474974513 C5.302999973297119,0.0010000000474974513 -5.302999973297119,10.605999946594238 -5.302999973297119,10.605999946594238z"></path></g></g><g transform="matrix(0,0,0,0,285.5,209.75)" opacity="1" style="display: block;"><g opacity="1" transform="matrix(1,0,0,1,7.75,7.75)"><path fill="rgb(255,254,255)" fill-opacity="1" d=" M0,-7.5 C4.14300012588501,-7.5 7.5,-4.142000198364258 7.5,0 C7.5,4.142000198364258 4.14300012588501,7.5 0,7.5 C-4.14300012588501,7.5 -7.5,4.142000198364258 -7.5,0 C-7.5,-4.142000198364258 -4.14300012588501,-7.5 0,-7.5z"></path></g></g><g transform="matrix(1,0,0,1,52.8589973449707,237.00099182128906)" opacity="1" style="display: block;"><g opacity="1" transform="matrix(1,0,0,1,5.552999973297119,10.857000350952148)"><path fill="rgb(0,244,201)" fill-opacity="1" d=" M-5.302999973297119,10.605999946594238 C-5.302999973297119,10.605999946594238 -5.302999973297119,-10.605999946594238 -5.302999973297119,-10.605999946594238 C-5.302999973297119,-10.605999946594238 5.302999973297119,0.0010000000474974513 5.302999973297119,0.0010000000474974513 C5.302999973297119,0.0010000000474974513 -5.302999973297119,10.605999946594238 -5.302999973297119,10.605999946594238z"></path></g></g><g transform="matrix(1,0,0,1,87.25,240)" opacity="1" style="display: block;"><g opacity="1" transform="matrix(1,0,0,1,7.75,7.75)"><path fill="rgb(255,254,255)" fill-opacity="1" d=" M0,-7.5 C4.142000198364258,-7.5 7.5,-4.142000198364258 7.5,0 C7.5,4.142000198364258 4.142000198364258,7.5 0,7.5 C-4.142000198364258,7.5 -7.5,4.142000198364258 -7.5,0 C-7.5,-4.142000198364258 -4.142000198364258,-7.5 0,-7.5z"></path></g></g><g transform="matrix(1,0,0,1,129.8590087890625,237.00099182128906)" opacity="1" style="display: block;"><g opacity="1" transform="matrix(1,0,0,1,5.552999973297119,10.857000350952148)"><path fill="rgb(0,244,201)" fill-opacity="1" d=" M-5.302999973297119,10.605999946594238 C-5.302999973297119,10.605999946594238 -5.302999973297119,-10.605999946594238 -5.302999973297119,-10.605999946594238 C-5.302999973297119,-10.605999946594238 5.302999973297119,0.0010000000474974513 5.302999973297119,0.0010000000474974513 C5.302999973297119,0.0010000000474974513 -5.302999973297119,10.605999946594238 -5.302999973297119,10.605999946594238z"></path></g></g><g transform="matrix(1,0,0,1,163.25,240)" opacity="1" style="display: block;"><g opacity="1" transform="matrix(1,0,0,1,7.75,7.75)"><path fill="rgb(255,254,255)" fill-opacity="1" d=" M0,-7.5 C4.142000198364258,-7.5 7.5,-4.142000198364258 7.5,0 C7.5,4.142000198364258 4.142000198364258,7.5 0,7.5 C-4.142000198364258,7.5 -7.5,4.142000198364258 -7.5,0 C-7.5,-4.142000198364258 -4.142000198364258,-7.5 0,-7.5z"></path></g></g><g transform="matrix(1,0,0,1,205.8590087890625,237.00099182128906)" opacity="1" style="display: block;"><g opacity="1" transform="matrix(1,0,0,1,5.552999973297119,10.857000350952148)"><path fill="rgb(0,244,201)" fill-opacity="1" d=" M-5.302999973297119,10.605999946594238 C-5.302999973297119,10.605999946594238 -5.302999973297119,-10.605999946594238 -5.302999973297119,-10.605999946594238 C-5.302999973297119,-10.605999946594238 5.302999973297119,0.0010000000474974513 5.302999973297119,0.0010000000474974513 C5.302999973297119,0.0010000000474974513 -5.302999973297119,10.605999946594238 -5.302999973297119,10.605999946594238z"></path></g></g><g transform="matrix(0.4756457507610321,0,0,0.4756457507610321,244.31375122070312,244.06375122070312)" opacity="1" style="display: block;"><g opacity="1" transform="matrix(1,0,0,1,7.75,7.75)"><path fill="rgb(255,254,255)" fill-opacity="1" d=" M0,-7.5 C4.14300012588501,-7.5 7.5,-4.142000198364258 7.5,0 C7.5,4.142000198364258 4.14300012588501,7.5 0,7.5 C-4.14300012588501,7.5 -7.5,4.142000198364258 -7.5,0 C-7.5,-4.142000198364258 -4.14300012588501,-7.5 0,-7.5z"></path></g></g><g transform="matrix(1,0,0,1,14.859001159667969,274.7510070800781)" opacity="1" style="display: block;"><g opacity="1" transform="matrix(1,0,0,1,5.552999973297119,10.857000350952148)"><path fill="rgb(0,244,201)" fill-opacity="1" d=" M-5.302999973297119,10.605999946594238 C-5.302999973297119,10.605999946594238 -5.302999973297119,-10.605999946594238 -5.302999973297119,-10.605999946594238 C-5.302999973297119,-10.605999946594238 5.302999973297119,0.0010000000474974513 5.302999973297119,0.0010000000474974513 C5.302999973297119,0.0010000000474974513 -5.302999973297119,10.605999946594238 -5.302999973297119,10.605999946594238z"></path></g></g><g transform="matrix(1,0,0,1,49.25,277.75)" opacity="1" style="display: block;"><g opacity="1" transform="matrix(1,0,0,1,7.75,7.75)"><path fill="rgb(255,254,255)" fill-opacity="1" d=" M0,-7.5 C4.142000198364258,-7.5 7.5,-4.142000198364258 7.5,0 C7.5,4.142000198364258 4.142000198364258,7.5 0,7.5 C-4.142000198364258,7.5 -7.5,4.142000198364258 -7.5,0 C-7.5,-4.142000198364258 -4.142000198364258,-7.5 0,-7.5z"></path></g></g><g transform="matrix(1,0,0,1,91.85900115966797,274.7510070800781)" opacity="1" style="display: block;"><g opacity="1" transform="matrix(1,0,0,1,5.552999973297119,10.857000350952148)"><path fill="rgb(0,244,201)" fill-opacity="1" d=" M-5.302999973297119,10.605999946594238 C-5.302999973297119,10.605999946594238 -5.302999973297119,-10.605999946594238 -5.302999973297119,-10.605999946594238 C-5.302999973297119,-10.605999946594238 5.302999973297119,0.0010000000474974513 5.302999973297119,0.0010000000474974513 C5.302999973297119,0.0010000000474974513 -5.302999973297119,10.605999946594238 -5.302999973297119,10.605999946594238z"></path></g></g><g transform="matrix(1,0,0,1,125.25,277.75)" opacity="1" style="display: block;"><g opacity="1" transform="matrix(1,0,0,1,7.75,7.75)"><path fill="rgb(255,254,255)" fill-opacity="1" d=" M0,-7.5 C4.142000198364258,-7.5 7.5,-4.142000198364258 7.5,0 C7.5,4.142000198364258 4.142000198364258,7.5 0,7.5 C-4.142000198364258,7.5 -7.5,4.142000198364258 -7.5,0 C-7.5,-4.142000198364258 -4.142000198364258,-7.5 0,-7.5z"></path></g></g><g transform="matrix(1,0,0,1,167.8590087890625,274.7510070800781)" opacity="1" style="display: block;"><g opacity="1" transform="matrix(1,0,0,1,5.552999973297119,10.857000350952148)"><path fill="rgb(0,244,201)" fill-opacity="1" d=" M-5.302999973297119,10.605999946594238 C-5.302999973297119,10.605999946594238 -5.302999973297119,-10.605999946594238 -5.302999973297119,-10.605999946594238 C-5.302999973297119,-10.605999946594238 5.302999973297119,0.0010000000474974513 5.302999973297119,0.0010000000474974513 C5.302999973297119,0.0010000000474974513 -5.302999973297119,10.605999946594238 -5.302999973297119,10.605999946594238z"></path></g></g><g transform="matrix(0.9992149472236633,0,0,0.9992149472236633,202.25608825683594,277.7560729980469)" opacity="1" style="display: block;"><g opacity="1" transform="matrix(1,0,0,1,7.75,7.75)"><path fill="rgb(255,254,255)" fill-opacity="1" d=" M0,-7.5 C4.14300012588501,-7.5 7.5,-4.142000198364258 7.5,0 C7.5,4.142000198364258 4.14300012588501,7.5 0,7.5 C-4.14300012588501,7.5 -7.5,4.142000198364258 -7.5,0 C-7.5,-4.142000198364258 -4.14300012588501,-7.5 0,-7.5z"></path></g></g></g></svg>