
<svg width="434" height="151" viewBox="0 0 434 151" fill="none" xmlns="http://www.w3.org/2000/svg">
<path fill-rule="evenodd" clip-rule="evenodd" d="M72.5409 27.0408V0L133.256 34.8826L133.577 34.6971V104.955L110.122 91.4346V63.9109C110.122 63.7902 110.061 63.6695 110.001 63.5487C109.941 63.428 109.88 63.3073 109.88 63.1866C109.397 62.4623 108.671 62.2208 107.946 62.7037L79.6548 79.1214C78.6876 79.6042 78.204 80.57 78.204 81.5357V114.371C78.204 114.492 78.2644 114.612 78.3249 114.733C78.3853 114.854 78.4458 114.975 78.4458 115.095C78.9294 115.82 79.6548 115.82 80.3802 115.578L104.319 101.816L127.774 115.337L66.8392 150.345V74.2864L66.5961 74.4298V150.104L5.66177 115.095L29.1166 101.575L53.0551 115.337C53.2969 115.578 53.5387 115.578 53.7805 115.578C54.5059 115.82 55.2314 115.095 55.2314 114.371V81.7772C55.2314 80.8114 54.5059 79.8457 53.7805 79.3628L25.7314 63.1866C25.4896 62.9452 25.2478 62.9452 25.006 62.9452C24.2806 62.7037 23.5552 63.428 23.5552 64.1523V91.4346L0.100308 104.955V35.0678L0 35.0082L0.100308 34.9508V34.6971L0.320315 34.8249L61.1761 0V27.0408L37.2376 40.8027C37.1453 40.8949 37.0529 40.9519 36.974 41.0006C36.8464 41.0794 36.754 41.1364 36.754 41.2856C36.2704 42.0099 36.5122 42.7342 37.2376 43.2171L65.5286 59.6347C66.254 60.1176 67.463 60.1176 68.1884 59.6347L96.4793 43.2171C96.5717 43.1249 96.6641 43.0679 96.743 43.0192C96.8706 42.9404 96.9629 42.8834 96.9629 42.7342C97.2047 42.0099 97.2048 41.2856 96.4793 40.8027L72.5409 27.0408ZM296.553 34.6971H312.995V47.9761H296.553V34.6971ZM296.553 55.2192H312.995V107.128H296.553V55.2192ZM168.635 39.0423V81.5351C168.635 98.4356 178.791 108.334 199.102 108.576C219.414 108.576 229.328 98.4356 229.328 81.7765V39.0423H211.434V82.018C211.434 89.0196 207.324 94.0898 199.102 94.0898C190.156 94.0898 186.528 89.261 186.528 82.2594V39.0423H168.635ZM253.75 55.4618H237.791V107.129H254.234V78.3982C254.234 72.1209 257.861 67.5336 263.422 67.5336C268.984 67.5336 271.644 71.1551 271.644 76.7081V107.129H288.086V73.328C288.086 61.9805 281.316 53.7717 269.951 53.7717C263.422 53.7717 257.377 56.9104 253.992 62.4634H253.75V55.4618ZM326.049 68.7399V93.3664C326.049 104.714 332.82 107.853 342.733 107.611C345.635 107.853 348.779 107.611 351.68 106.887V94.815H348.053C344.426 94.815 342.25 93.8493 342.25 89.7449V68.4985H351.68V55.2195H342.25V38.8019H326.049V55.2195H319.279V68.7399H326.049ZM361.594 111.473H367.156C371.992 111.473 373.926 109.542 373.926 105.92C373.443 102.299 372.475 98.6772 370.783 95.2971L355.791 55.2187H373.201L380.213 77.1894C381.906 82.2596 383.356 89.0198 383.356 89.0198H383.598C383.598 89.0198 385.049 82.0181 386.742 77.1894L393.512 55.2187H409.955L392.061 107.852C387.951 119.924 382.873 124.269 372.475 124.269H361.836L361.594 111.473ZM429.196 55.816C430.888 56.5403 432.097 57.7475 432.823 59.4375C433.306 61.1276 433.306 62.8176 432.823 64.5077C432.097 66.1978 430.888 67.4049 429.196 68.1292C427.503 68.8535 425.81 68.8535 424.118 68.1292C422.425 67.4049 421.216 66.1978 420.491 64.5077C419.765 62.8176 419.765 61.1276 420.491 59.4375C421.216 57.7475 422.425 56.5403 424.118 55.816C425.81 55.0917 427.503 55.0917 429.196 55.816ZM429.196 66.1978C429.921 65.9563 430.647 65.232 430.888 64.5077C431.856 62.8176 431.856 60.8862 431.13 59.4375C430.647 58.4718 429.921 57.9889 429.196 57.5061C427.503 56.5403 425.569 56.5403 424.118 57.5061C423.151 57.9889 422.667 58.7132 422.183 59.4375C421.216 61.1276 421.216 63.0591 422.183 64.5077C422.667 65.232 423.392 65.9563 424.118 66.1978C425.81 67.1635 427.745 67.1635 429.196 66.1978ZM428.954 61.8517C429.196 61.6103 429.196 61.1274 429.196 60.6446C429.196 59.9202 428.712 59.1959 428.228 58.9545C428.107 58.9545 427.987 58.8941 427.866 58.8338C427.745 58.7734 427.624 58.7131 427.503 58.7131H424.359V64.9904H425.81V62.8175H427.019L427.987 64.9904H429.437L428.228 62.576L428.954 61.8517ZM425.568 59.9202H426.777C427.019 59.9202 427.261 59.9202 427.261 60.1617C427.745 60.1617 427.745 60.4031 427.745 60.886C427.745 61.1274 427.745 61.3689 427.503 61.6103C427.261 61.8517 427.019 61.8517 427.019 61.8517H425.568V59.9202Z" fill="white"/>
</svg>
